<svg xmlns="http://www.w3.org/2000/svg" fill="none" viewBox="0 0 1200 640"><defs><linearGradient id="a" x1="96" x2="1102" y1="26" y2="618" gradientUnits="userSpaceOnUse"><stop stop-color="#d9e6ef"/><stop offset="1" stop-color="#b9cbd8"/></linearGradient><linearGradient id="b" x1="44" x2="1156" y1="44" y2="596" gradientUnits="userSpaceOnUse"><stop stop-color="#efe7d7"/><stop offset="1" stop-color="#ddcfb5"/></linearGradient><filter id="c" width="936" height="572" x="132" y="34" color-interpolation-filters="sRGB" filterUnits="userSpaceOnUse"><feDropShadow dx="0" dy="14" flood-color="#3b2d22" flood-opacity=".26" stdDeviation="12"/></filter><filter id="d" width="284" height="300" x="486" y="187" color-interpolation-filters="sRGB" filterUnits="userSpaceOnUse"><feDropShadow dx="0" dy="9" flood-color="#3a201b" flood-opacity=".34" stdDeviation="10"/></filter></defs><rect width="1200" height="640" fill="url(#a)" rx="28"/><rect width="1136" height="576" x="32" y="32" fill="url(#b)" opacity=".52" rx="24"/><path stroke="#8da4b6" stroke-linecap="round" stroke-width="2" d="M86 130c180 52 366 84 546 84 172 0 342-24 478-66M74 252c180 42 356 66 538 66 178 0 346-24 512-72M68 382c184 36 362 56 544 56 186 0 360-22 520-68M104 510c182 30 362 46 546 46 180 0 336-20 448-46" opacity=".24"/><g filter="url(#c)"><svg width="892" height="564" x="154" y="38" viewBox="0 0 19200 19200"><g stroke-linejoin="round"><path fill="#8e6f53" stroke="#6a523e" stroke-width="128" d="M5425 3792c-2 7-29 104-60 214l-55 202 80 140 81 140-66 131-65 131 66 131 66 130-4 152c-3 141-5 156-30 206l-26 54 26 39c48 73 110 86 207 43 36-16 65-23 79-19 11 4 67 8 124 9 56 1 105 5 110 9 4 4-15 26-43 49-59 48-139 128-213 211l-53 59-74-21c-67-18-79-19-122-7-27 8-85 23-130 35l-81 22-66 99-66 99h-305l-450 290c-247 159-456 290-462 290-7 0-79-32-159-70-81-39-158-70-171-70-15 0-37 13-54 31-28 30-29 34-29 134v102l-117 48c-148 60-442 202-593 285-225 124-410 255-563 399-41 38-91 75-116 85-101 40-166 127-178 240l-6 56h-51c-124 0-253 56-426 185-63 48-205 146-315 220-249 167-348 246-434 347-75 88-155 214-178 280-17 51-13 90 24 204l26 80-52 64c-28 35-48 67-44 70 11 9 467 172 583 208 119 38 136 40 297 44l132 2 122-134c67-74 124-138 128-142 3-4 78-25 165-47l159-41 201 61c111 34 235 78 276 98 64 31 82 46 123 101 66 89 160 183 297 298 149 125 207 184 310 317 46 60 111 137 143 171 74 80 290 242 386 291 71 36 79 38 172 38h97l173-88c202-104 273-124 372-107 66 13 115 34 189 86 27 18 57 35 67 39 13 4 20 19 24 55 7 58 30 106 110 224 47 70 61 100 66 140l6 51 130 67c72 37 131 67 132 67 1 1-5 17-13 36-20 48-17 96 11 204 14 52 25 113 25 135 0 23 14 97 30 166 28 118 30 137 30 330v205l-116 140c-64 77-147 177-185 222-38 46-69 89-69 97 0 7 12 65 26 127 50 222 56 275 61 549l4 265-83 127-83 128h-133c-106 0-138 3-158 16-13 9-49 54-80 100-64 96-101 131-149 140-19 3-35 10-35 15s21 51 46 101c102 203 248 353 475 488l84 50h352l52 108c107 220 167 289 396 463l110 83 130-2c155-3 163-4 285-45 83-28 108-32 195-31 83 0 111 5 165 26 173 70 216 67 464-32 69-27 167-57 227-69 129-25 195-51 276-108 98-69 162-159 203-288 12-39 30-77 39-86 10-9 58-22 123-32 126-20 201-44 269-88 49-31 106-99 128-154 10-27 27-36 158-85l146-55 13-40c7-22 29-99 48-170 43-155 113-303 228-477 62-93 113-153 226-267 341-342 534-432 1277-591 160-34 369-81 465-105 96-23 232-53 302-66l127-23 54 40c30 21 119 86 197 143l142 104 76-34c140-61 122-35 252-356 64-158 123-291 131-295 8-5 97-52 199-106l185-98 45-132c40-118 47-132 68-132 19 0 377 59 465 76 16 3 27 1 27-5s-25-55-55-108c-30-54-55-100-55-103s63-37 140-75 140-75 140-81c0-7-21-72-46-145l-46-133 21-42c42-88 121-156 319-273l104-61h298c263 0 299 2 311 16 8 9 110 88 227 176 118 88 249 194 292 236 75 75 156 187 186 257l14 35 133 2c72 0 141 0 152-1s45-26 75-56l55-55 50 26c45 23 58 25 130 21 44-3 107-15 140-26 65-23 168-87 206-127 13-14 37-35 52-46l28-20 80 53 80 52 38-37 38-37 64 22c57 19 87 22 268 23 175 1 205-1 215-15 20-28 110-86 159-103 71-24 104-27 327-30l205-2 115-80c64-43 129-89 145-100l29-22-32-156c-18-86-44-186-58-221-28-69-83-129-135-147-16-5-29-13-29-17 0-3 50-28 110-55 123-54 118-43 56-111-31-34-56-98-56-146 0-26 14-91 31-145 20-63 33-129 36-181l5-83 78-45c43-25 83-51 88-58 8-10 82-274 82-292 0-12 37-1 210 65 145 55 187 67 196 57 23-24 257-362 258-372 0-6-40-90-89-187l-90-178-96-41-97-40-51 25-50 26-80-54c-124-84-181-93-359-52l-104 23-70-87c-66-82-74-89-127-104-72-20-94-20-214 1-95 16-100 16-154-2-84-29-155-22-308 29-121 41-325 82-506 101-55 6-57 7-162 113l-106 107-3 69-3 69-159 80-158 80-52-16c-80-26-192-106-293-210l-93-96v-283l-47 7c-70 10-132 40-181 88-47 45-74 93-115 202-26 69-28 71-79 89-91 32-159 112-257 304-46 89-94 171-108 182-13 10-45 22-71 25-84 12-136 34-187 82-27 25-73 60-100 78-71 46-269 135-301 135-14 0-63-16-107-37-75-33-92-36-194-41l-112-4-3 68-3 67-100 43c-55 24-107 43-116 44-8 0-86-68-172-150l-156-150-40 6c-67 11-90-2-197-112l-103-104h-383l-209-126-209-126 6-36c3-21 18-105 33-187l26-150 90-12c50-6 91-12 93-12 2-1 12-20 22-44 63-137-34-506-200-766-47-73-48-78-48-149 1-40 4-74 7-77 4-2 28 10 55 26 26 17 51 28 54 24 12-12 14-141 2-183-16-61-70-117-137-142l-55-20-36 28-36 29-35-21c-26-15-57-21-128-24-63-3-93-8-93-16 0-7 14-52 30-101 17-49 30-90 30-92 0-1-82-4-182-5l-181-3-35-108-35-108 33-34 34-35-51-57c-27-32-62-62-77-68-49-17-168 16-331 93-142 66-257 104-272 88-4-4 64-77 150-164 86-86 157-161 157-167 0-12-131-317-141-329-5-5-80 5-179 24-94 18-173 31-174 29-3-4 91-229 98-236 1-1 67 8 147 21 79 14 145 24 146 23 3-4 19-322 16-328-2-4-45 6-95 22-303 95-490 150-493 147-3-2 18-101 46-219s52-228 55-244c4-29-2-34-170-143-96-62-183-116-193-118-14-4-23 2-31 20-7 16-20 26-32 26-17 0-20 7-20 43 0 24-11 79-24 123-13 43-26 99-30 124-6 42-10 47-67 80-34 19-81 57-105 84l-44 48v-187l-38-26c-60-43-214-192-277-269-71-86-171-254-210-349l-28-71h-118c-65 0-120 4-123 9-3 4-10 41-16 82-16 108-19 119-35 119-36 0-65-45-90-143-22-88-66-187-84-187-3 0-33 48-65 107l-60 107-20-30c-49-69-117-122-231-178l-117-58-27 26c-15 14-29 26-32 26s-14-26-25-58c-10-31-19-59-21-61-1-2-32 15-68 39-35 23-71 40-79 37-10-4-344-248-421-308-6-4-88 51-195 131l-185 140-132-133c-73-72-133-134-133-137s27-22 60-41c33-18 60-41 60-49 0-29-30-130-50-171-46-88-139-165-253-208-32-11-60-21-62-21-3 0-5 14-5 32s-5 94-12 170c-11 132-12 138-33 138-43 0-102-57-178-172-117-177-96-166-364-204-264-39-252-38-258-22zm262 123c97 14 183 31 191 38 8 6 50 64 92 128 113 168 175 212 300 213l65 1 7-60c4-33 10-99 13-148 8-103 14-106 82-45 43 40 93 124 93 158 0 8-39 37-90 66l-89 50 213 213 213 213 188-143c159-120 191-140 206-131 9 6 108 79 219 161l202 151 43-30 43-30 22 68c13 37 26 71 30 75 4 5 35-17 68-48l61-56 73 37c147 74 185 125 213 285 9 52 17 95 19 96 1 1 28-46 61-105 32-59 67-120 76-136l17-28 16 56c31 105 108 160 216 154l55-3 17-100c9-55 17-101 17-103 1-1 21-2 46-2h45l38 82c75 162 190 317 342 462 51 48 103 94 116 102l24 16v242c1 217 2 239 16 221 8-11 50-76 92-145 92-149 142-202 241-254 72-38 73-39 68-71-6-35 10-121 40-217l18-57 115 75c63 42 117 77 119 79 6 7-81 360-93 372-6 6-65 37-131 67l-120 55-22 63c-12 35-35 105-51 156l-30 93 49 24c26 14 52 25 57 25s63-62 130-138l121-137 141-43c78-24 144-42 146-39 2 2-36 96-86 210-49 113-90 210-90 216s6 8 13 6c29-11 441-84 445-80 9 8 82 187 82 199 0 6-89 100-197 208-108 109-194 200-191 204 12 12 152 44 192 44 73 0 166-29 308-96 160-74 251-102 274-84 18 16 18 29-2 51-14 16-12 29 29 161 25 78 50 155 56 170l11 28h146c113 0 145 3 142 12-39 106-50 151-37 159 27 17 85 29 144 29 122 1 161 18 200 85 10 16 13 16 42-9 17-14 33-26 36-26 2 0 5 77 6 170l2 171 55 84c118 181 204 434 204 599v65l-32 5c-18 3-64 8-103 11-38 3-71 8-73 10s-21 106-43 232c-21 125-41 240-44 255-4 26 6 34 247 178l251 150h368l92 94c80 82 99 96 146 110 30 9 68 16 84 16 23 0 58 28 188 152 116 110 166 153 182 151 12-1 93-32 180-68l157-67v-98h40c23 0 76 15 127 37 129 54 175 52 321-14 139-63 206-103 269-161 54-50 88-67 153-77 122-18 159-55 262-264 82-167 132-227 213-255 28-10 57-21 65-25 8-5 36-62 62-127 40-101 54-126 95-164l48-45 3 102 3 101 105 110c115 121 201 189 297 232 135 60 108 64 346-52l211-103v-160l82-82c69-69 88-83 114-83 75 0 393-62 490-96 140-48 197-56 254-36s132 21 245 3c132-20 154-12 230 90 97 129 78 122 230 87 185-42 208-39 336 47l103 67 55-27 55-27 59 24 59 23 71 141 70 141-58 84c-33 46-76 107-97 136l-38 52-37-14c-21-7-112-41-202-74-91-34-170-61-176-61-7 0-30 70-55 167-24 93-47 176-52 185-4 10-55 45-112 78l-105 61 15 34c22 54 17 111-22 240-41 138-42 215-6 297l21 47-57 26c-31 15-110 49-174 77-65 28-118 53-118 57 0 3 50 19 111 35 148 38 208 69 237 123 24 45 68 202 77 280l6 48-109 72-108 73h-195c-255 0-336 18-459 101l-55 37-135 5c-163 6-229-2-309-39l-62-27-32 31c-18 18-36 32-39 32-4 0-36-18-72-41l-64-40-54 27c-29 14-72 44-95 65-98 89-207 139-307 139-43 0-61-7-111-40l-60-40-75 75-75 75h-183l-30-53c-46-81-140-195-223-268-41-36-155-126-254-199s-200-150-224-172l-44-38h-656l-158 97c-183 112-281 201-326 296-15 32-27 67-27 78s16 65 35 120c19 56 35 106 35 113 0 6-67 45-150 86l-150 74 36 64c19 36 34 66 32 67-3 2-282-42-370-59-26-5-27-3-78 149l-51 154-142 77c-78 42-168 91-200 108l-59 31-117 289-117 288-57 30-58 29-32-23c-18-12-105-75-194-140l-161-118-219 44c-120 25-276 59-347 76s-224 51-340 76c-645 139-833 207-1098 394-105 75-285 243-386 363-161 190-287 425-353 657-22 80-46 150-52 156-7 7-70 33-142 59-71 27-135 52-141 57-7 5-14 21-17 36-9 41-54 104-96 134-51 37-136 63-266 83-102 16-113 19-147 52-27 26-40 50-48 86-29 136-126 263-242 317-35 16-122 43-194 59s-169 45-215 64c-124 51-207 77-251 77-21 0-86-17-145-37-99-34-117-37-218-37-100 0-119 3-205 34-87 31-107 35-230 38l-135 4-91-69c-207-156-258-218-374-456l-62-127h-387l-52-30c-95-57-169-111-236-173-70-65-161-181-189-241l-17-35 49-54c27-30 66-81 87-115l38-62h297l100-154 100-154 7-183c8-227-5-413-45-614-17-83-30-157-30-166 0-8 37-60 83-115 45-54 126-153 180-219l99-119-5-246c-4-226-6-253-30-345-15-55-31-138-36-185-6-47-17-108-25-135-29-92-18-141 44-200l31-30-161-80-162-80-19-55c-11-30-36-79-57-108-60-87-112-176-112-191 0-8 14-30 31-47l31-32-48-25c-27-13-60-28-73-32s-57-29-98-56c-106-69-171-91-268-92-108-1-170 19-356 116-134 69-165 81-217 85-79 6-132-13-235-82-195-131-244-178-481-470-50-62-123-134-200-198-151-125-279-249-319-308-82-122-134-150-456-250l-233-72-188 47-188 48-105 116c-58 64-115 126-126 138-20 21-28 22-137 18-93-3-135-10-217-35-172-53-467-163-467-174 0-5 10-20 21-32l22-23-37-117c-20-64-36-126-36-139 0-30 92-179 165-266 79-94 174-169 455-359 129-88 270-186 313-219 143-111 250-148 398-138l87 6 4-102c4-126 23-163 100-201 29-14 58-26 65-26s32-21 55-46c200-217 642-486 1153-701 72-30 145-61 163-68l32-15v-110c0-60 2-110 4-110s74 34 160 75l157 75 212-137c117-75 266-171 332-213s180-116 254-163l134-87h326l75-108 75-108 96-24 96-25 87 23c48 12 90 22 93 22s55-54 115-121c65-72 155-158 223-212l115-91-41-35c-56-50-121-71-220-71-45 0-103-5-130-11-44-10-55-9-114 15-78 31-104 33-96 8 32-102 37-136 37-281v-154l-60-114-60-113 67-134 66-134-83-143-84-144 21-80c27-104 64-225 69-225 2 0 83 11 181 25zm4763 1975c0 22-5 40-11 40-30 0-149-24-149-30s125-46 153-49c4-1 7 17 7 39zm-691 107c-31 41-89 102-89 94 0-29 27-76 54-92 39-24 53-24 35-2zm2003 1422c18 16 31 32 28 34-8 9-90-44-84-54 9-15 22-10 56 20z"/><path stroke="#b18d6b" stroke-width="48" d="M5425 3792c-2 7-29 104-60 214l-55 202 80 140 81 140-66 131-65 131 66 131 66 130-4 152c-3 141-5 156-30 206l-26 54 26 39c48 73 110 86 207 43 36-16 65-23 79-19 11 4 67 8 124 9 56 1 105 5 110 9 4 4-15 26-43 49-59 48-139 128-213 211l-53 59-74-21c-67-18-79-19-122-7-27 8-85 23-130 35l-81 22-66 99-66 99h-305l-450 290c-247 159-456 290-462 290-7 0-79-32-159-70-81-39-158-70-171-70-15 0-37 13-54 31-28 30-29 34-29 134v102l-117 48c-148 60-442 202-593 285-225 124-410 255-563 399-41 38-91 75-116 85-101 40-166 127-178 240l-6 56h-51c-124 0-253 56-426 185-63 48-205 146-315 220-249 167-348 246-434 347-75 88-155 214-178 280-17 51-13 90 24 204l26 80-52 64c-28 35-48 67-44 70 11 9 467 172 583 208 119 38 136 40 297 44l132 2 122-134c67-74 124-138 128-142 3-4 78-25 165-47l159-41 201 61c111 34 235 78 276 98 64 31 82 46 123 101 66 89 160 183 297 298 149 125 207 184 310 317 46 60 111 137 143 171 74 80 290 242 386 291 71 36 79 38 172 38h97l173-88c202-104 273-124 372-107 66 13 115 34 189 86 27 18 57 35 67 39 13 4 20 19 24 55 7 58 30 106 110 224 47 70 61 100 66 140l6 51 130 67c72 37 131 67 132 67 1 1-5 17-13 36-20 48-17 96 11 204 14 52 25 113 25 135 0 23 14 97 30 166 28 118 30 137 30 330v205l-116 140c-64 77-147 177-185 222-38 46-69 89-69 97 0 7 12 65 26 127 50 222 56 275 61 549l4 265-83 127-83 128h-133c-106 0-138 3-158 16-13 9-49 54-80 100-64 96-101 131-149 140-19 3-35 10-35 15s21 51 46 101c102 203 248 353 475 488l84 50h352l52 108c107 220 167 289 396 463l110 83 130-2c155-3 163-4 285-45 83-28 108-32 195-31 83 0 111 5 165 26 173 70 216 67 464-32 69-27 167-57 227-69 129-25 195-51 276-108 98-69 162-159 203-288 12-39 30-77 39-86 10-9 58-22 123-32 126-20 201-44 269-88 49-31 106-99 128-154 10-27 27-36 158-85l146-55 13-40c7-22 29-99 48-170 43-155 113-303 228-477 62-93 113-153 226-267 341-342 534-432 1277-591 160-34 369-81 465-105 96-23 232-53 302-66l127-23 54 40c30 21 119 86 197 143l142 104 76-34c140-61 122-35 252-356 64-158 123-291 131-295 8-5 97-52 199-106l185-98 45-132c40-118 47-132 68-132 19 0 377 59 465 76 16 3 27 1 27-5s-25-55-55-108c-30-54-55-100-55-103s63-37 140-75 140-75 140-81c0-7-21-72-46-145l-46-133 21-42c42-88 121-156 319-273l104-61h298c263 0 299 2 311 16 8 9 110 88 227 176 118 88 249 194 292 236 75 75 156 187 186 257l14 35 133 2c72 0 141 0 152-1s45-26 75-56l55-55 50 26c45 23 58 25 130 21 44-3 107-15 140-26 65-23 168-87 206-127 13-14 37-35 52-46l28-20 80 53 80 52 38-37 38-37 64 22c57 19 87 22 268 23 175 1 205-1 215-15 20-28 110-86 159-103 71-24 104-27 327-30l205-2 115-80c64-43 129-89 145-100l29-22-32-156c-18-86-44-186-58-221-28-69-83-129-135-147-16-5-29-13-29-17 0-3 50-28 110-55 123-54 118-43 56-111-31-34-56-98-56-146 0-26 14-91 31-145 20-63 33-129 36-181l5-83 78-45c43-25 83-51 88-58 8-10 82-274 82-292 0-12 37-1 210 65 145 55 187 67 196 57 23-24 257-362 258-372 0-6-40-90-89-187l-90-178-96-41-97-40-51 25-50 26-80-54c-124-84-181-93-359-52l-104 23-70-87c-66-82-74-89-127-104-72-20-94-20-214 1-95 16-100 16-154-2-84-29-155-22-308 29-121 41-325 82-506 101-55 6-57 7-162 113l-106 107-3 69-3 69-159 80-158 80-52-16c-80-26-192-106-293-210l-93-96v-283l-47 7c-70 10-132 40-181 88-47 45-74 93-115 202-26 69-28 71-79 89-91 32-159 112-257 304-46 89-94 171-108 182-13 10-45 22-71 25-84 12-136 34-187 82-27 25-73 60-100 78-71 46-269 135-301 135-14 0-63-16-107-37-75-33-92-36-194-41l-112-4-3 68-3 67-100 43c-55 24-107 43-116 44-8 0-86-68-172-150l-156-150-40 6c-67 11-90-2-197-112l-103-104h-383l-209-126-209-126 6-36c3-21 18-105 33-187l26-150 90-12c50-6 91-12 93-12 2-1 12-20 22-44 63-137-34-506-200-766-47-73-48-78-48-149 1-40 4-74 7-77 4-2 28 10 55 26 26 17 51 28 54 24 12-12 14-141 2-183-16-61-70-117-137-142l-55-20-36 28-36 29-35-21c-26-15-57-21-128-24-63-3-93-8-93-16 0-7 14-52 30-101 17-49 30-90 30-92 0-1-82-4-182-5l-181-3-35-108-35-108 33-34 34-35-51-57c-27-32-62-62-77-68-49-17-168 16-331 93-142 66-257 104-272 88-4-4 64-77 150-164 86-86 157-161 157-167 0-12-131-317-141-329-5-5-80 5-179 24-94 18-173 31-174 29-3-4 91-229 98-236 1-1 67 8 147 21 79 14 145 24 146 23 3-4 19-322 16-328-2-4-45 6-95 22-303 95-490 150-493 147-3-2 18-101 46-219s52-228 55-244c4-29-2-34-170-143-96-62-183-116-193-118-14-4-23 2-31 20-7 16-20 26-32 26-17 0-20 7-20 43 0 24-11 79-24 123-13 43-26 99-30 124-6 42-10 47-67 80-34 19-81 57-105 84l-44 48v-187l-38-26c-60-43-214-192-277-269-71-86-171-254-210-349l-28-71h-118c-65 0-120 4-123 9-3 4-10 41-16 82-16 108-19 119-35 119-36 0-65-45-90-143-22-88-66-187-84-187-3 0-33 48-65 107l-60 107-20-30c-49-69-117-122-231-178l-117-58-27 26c-15 14-29 26-32 26s-14-26-25-58c-10-31-19-59-21-61-1-2-32 15-68 39-35 23-71 40-79 37-10-4-344-248-421-308-6-4-88 51-195 131l-185 140-132-133c-73-72-133-134-133-137s27-22 60-41c33-18 60-41 60-49 0-29-30-130-50-171-46-88-139-165-253-208-32-11-60-21-62-21-3 0-5 14-5 32s-5 94-12 170c-11 132-12 138-33 138-43 0-102-57-178-172-117-177-96-166-364-204-264-39-252-38-258-22zm262 123c97 14 183 31 191 38 8 6 50 64 92 128 113 168 175 212 300 213l65 1 7-60c4-33 10-99 13-148 8-103 14-106 82-45 43 40 93 124 93 158 0 8-39 37-90 66l-89 50 213 213 213 213 188-143c159-120 191-140 206-131 9 6 108 79 219 161l202 151 43-30 43-30 22 68c13 37 26 71 30 75 4 5 35-17 68-48l61-56 73 37c147 74 185 125 213 285 9 52 17 95 19 96 1 1 28-46 61-105 32-59 67-120 76-136l17-28 16 56c31 105 108 160 216 154l55-3 17-100c9-55 17-101 17-103 1-1 21-2 46-2h45l38 82c75 162 190 317 342 462 51 48 103 94 116 102l24 16v242c1 217 2 239 16 221 8-11 50-76 92-145 92-149 142-202 241-254 72-38 73-39 68-71-6-35 10-121 40-217l18-57 115 75c63 42 117 77 119 79 6 7-81 360-93 372-6 6-65 37-131 67l-120 55-22 63c-12 35-35 105-51 156l-30 93 49 24c26 14 52 25 57 25s63-62 130-138l121-137 141-43c78-24 144-42 146-39 2 2-36 96-86 210-49 113-90 210-90 216s6 8 13 6c29-11 441-84 445-80 9 8 82 187 82 199 0 6-89 100-197 208-108 109-194 200-191 204 12 12 152 44 192 44 73 0 166-29 308-96 160-74 251-102 274-84 18 16 18 29-2 51-14 16-12 29 29 161 25 78 50 155 56 170l11 28h146c113 0 145 3 142 12-39 106-50 151-37 159 27 17 85 29 144 29 122 1 161 18 200 85 10 16 13 16 42-9 17-14 33-26 36-26 2 0 5 77 6 170l2 171 55 84c118 181 204 434 204 599v65l-32 5c-18 3-64 8-103 11-38 3-71 8-73 10s-21 106-43 232c-21 125-41 240-44 255-4 26 6 34 247 178l251 150h368l92 94c80 82 99 96 146 110 30 9 68 16 84 16 23 0 58 28 188 152 116 110 166 153 182 151 12-1 93-32 180-68l157-67v-98h40c23 0 76 15 127 37 129 54 175 52 321-14 139-63 206-103 269-161 54-50 88-67 153-77 122-18 159-55 262-264 82-167 132-227 213-255 28-10 57-21 65-25 8-5 36-62 62-127 40-101 54-126 95-164l48-45 3 102 3 101 105 110c115 121 201 189 297 232 135 60 108 64 346-52l211-103v-160l82-82c69-69 88-83 114-83 75 0 393-62 490-96 140-48 197-56 254-36s132 21 245 3c132-20 154-12 230 90 97 129 78 122 230 87 185-42 208-39 336 47l103 67 55-27 55-27 59 24 59 23 71 141 70 141-58 84c-33 46-76 107-97 136l-38 52-37-14c-21-7-112-41-202-74-91-34-170-61-176-61-7 0-30 70-55 167-24 93-47 176-52 185-4 10-55 45-112 78l-105 61 15 34c22 54 17 111-22 240-41 138-42 215-6 297l21 47-57 26c-31 15-110 49-174 77-65 28-118 53-118 57 0 3 50 19 111 35 148 38 208 69 237 123 24 45 68 202 77 280l6 48-109 72-108 73h-195c-255 0-336 18-459 101l-55 37-135 5c-163 6-229-2-309-39l-62-27-32 31c-18 18-36 32-39 32-4 0-36-18-72-41l-64-40-54 27c-29 14-72 44-95 65-98 89-207 139-307 139-43 0-61-7-111-40l-60-40-75 75-75 75h-183l-30-53c-46-81-140-195-223-268-41-36-155-126-254-199s-200-150-224-172l-44-38h-656l-158 97c-183 112-281 201-326 296-15 32-27 67-27 78s16 65 35 120c19 56 35 106 35 113 0 6-67 45-150 86l-150 74 36 64c19 36 34 66 32 67-3 2-282-42-370-59-26-5-27-3-78 149l-51 154-142 77c-78 42-168 91-200 108l-59 31-117 289-117 288-57 30-58 29-32-23c-18-12-105-75-194-140l-161-118-219 44c-120 25-276 59-347 76s-224 51-340 76c-645 139-833 207-1098 394-105 75-285 243-386 363-161 190-287 425-353 657-22 80-46 150-52 156-7 7-70 33-142 59-71 27-135 52-141 57-7 5-14 21-17 36-9 41-54 104-96 134-51 37-136 63-266 83-102 16-113 19-147 52-27 26-40 50-48 86-29 136-126 263-242 317-35 16-122 43-194 59s-169 45-215 64c-124 51-207 77-251 77-21 0-86-17-145-37-99-34-117-37-218-37-100 0-119 3-205 34-87 31-107 35-230 38l-135 4-91-69c-207-156-258-218-374-456l-62-127h-387l-52-30c-95-57-169-111-236-173-70-65-161-181-189-241l-17-35 49-54c27-30 66-81 87-115l38-62h297l100-154 100-154 7-183c8-227-5-413-45-614-17-83-30-157-30-166 0-8 37-60 83-115 45-54 126-153 180-219l99-119-5-246c-4-226-6-253-30-345-15-55-31-138-36-185-6-47-17-108-25-135-29-92-18-141 44-200l31-30-161-80-162-80-19-55c-11-30-36-79-57-108-60-87-112-176-112-191 0-8 14-30 31-47l31-32-48-25c-27-13-60-28-73-32s-57-29-98-56c-106-69-171-91-268-92-108-1-170 19-356 116-134 69-165 81-217 85-79 6-132-13-235-82-195-131-244-178-481-470-50-62-123-134-200-198-151-125-279-249-319-308-82-122-134-150-456-250l-233-72-188 47-188 48-105 116c-58 64-115 126-126 138-20 21-28 22-137 18-93-3-135-10-217-35-172-53-467-163-467-174 0-5 10-20 21-32l22-23-37-117c-20-64-36-126-36-139 0-30 92-179 165-266 79-94 174-169 455-359 129-88 270-186 313-219 143-111 250-148 398-138l87 6 4-102c4-126 23-163 100-201 29-14 58-26 65-26s32-21 55-46c200-217 642-486 1153-701 72-30 145-61 163-68l32-15v-110c0-60 2-110 4-110s74 34 160 75l157 75 212-137c117-75 266-171 332-213s180-116 254-163l134-87h326l75-108 75-108 96-24 96-25 87 23c48 12 90 22 93 22s55-54 115-121c65-72 155-158 223-212l115-91-41-35c-56-50-121-71-220-71-45 0-103-5-130-11-44-10-55-9-114 15-78 31-104 33-96 8 32-102 37-136 37-281v-154l-60-114-60-113 67-134 66-134-83-143-84-144 21-80c27-104 64-225 69-225 2 0 83 11 181 25zm4763 1975c0 22-5 40-11 40-30 0-149-24-149-30s125-46 153-49c4-1 7 17 7 39zm-691 107c-31 41-89 102-89 94 0-29 27-76 54-92 39-24 53-24 35-2zm2003 1422c18 16 31 32 28 34-8 9-90-44-84-54 9-15 22-10 56 20z" opacity=".45"/></g></svg></g><g filter="url(#d)"><g transform="matrix(.88 0 0 .88 614 320)"><circle r="66" fill="#cf6a58" opacity=".2"/><path fill="#ba4b3b" d="M0-88c-52 0-94 42-94 94 0 64 80 158 90 169 1 1 2 2 4 2s3-1 4-2C14 164 94 70 94 6c0-52-42-94-94-94"/><circle cy="6" r="35" fill="#f8e8d7"/><circle cy="6" r="16" fill="#cc6a58"/></g></g></svg>