<?xml version="1.0" encoding="utf-8" ?><svg xmlns="http://www.w3.org/2000/svg" xmlns:xlink="http://www.w3.org/1999/xlink" width="3450" height="3450" viewBox="220 220 3010 3010"><path fill="#037578" transform="matrix(3.36914 0 0 3.36914 0.000488281 0)" d="M137.339 265.511C146.489 252.353 156.792 238.076 167.282 225.907C234.063 148.047 325.325 95.1974 426.095 76.0304C452.236 71.32 477.693 67.3387 504.246 68.2143C518.583 68.6871 534.159 67.4972 548.391 68.6007C628.112 75.3596 704.689 102.806 770.553 148.226C868 215.201 934.604 318.376 955.522 434.755C957.186 444.063 958.515 453.473 959.796 462.847C960.266 466.283 961.56 470.878 961.555 474.263C961.517 498.629 962.029 523.265 961.432 547.6C961.295 553.183 959.054 562.733 958.217 568.51C948.529 638.137 922.589 704.507 882.495 762.251C813.526 861.368 707.764 928.768 588.791 949.422C577.187 951.472 562.871 953.597 551.145 955.346C539.307 957.113 523.32 954.571 511.161 955.559C499.674 955.525 487.522 955.894 476.156 955.488C470.487 955.286 461.134 953.069 455.019 952.343C429.866 949.356 405.601 943.829 381.322 936.626C367.159 932.424 353.544 926.958 339.735 921.862L335.494 920.083C316.968 912.116 298.974 902.964 281.625 892.683C179.235 831.862 105.133 732.929 75.5616 617.566C71.4311 601.352 68.3742 582.208 65.9068 565.699C65.2089 557.762 62.5846 548.202 62.5565 540.393C62.4815 519.563 62.0067 498.355 62.6532 477.561C62.9013 469.579 65.3295 458.501 66.4805 450.382C72.0521 411.081 82.4093 372.231 98.5093 335.894C105.582 319.955 113.501 304.405 122.233 289.312C126.749 281.633 131.861 274.207 136.396 266.558C136.712 266.382 137.074 265.839 137.339 265.511Z"/><path fill="#8FCCC5" transform="matrix(3.36914 0 0 3.36914 0.000488281 0)" d="M498.295 83.7168C499.03 83.6895 499.766 83.6661 500.501 83.6467C620.343 80.4986 729.758 124.259 816.313 206.747C896.057 283.575 942.087 388.885 944.315 499.594C946.269 612.046 903.383 720.652 825.126 801.43C747.994 881.895 638.025 932.942 526.246 935.61C412.853 939.025 302.644 897.836 219.286 820.888C135.245 744.185 85.0291 637.302 79.6354 523.649C75.6841 412.984 115.846 305.28 191.291 224.221C272.334 135.522 379.017 89.1121 498.295 83.7168Z"/><path fill="#037578" transform="matrix(3.36914 0 0 3.36914 0.000488281 0)" d="M499.291 95.7229C606.251 92.7262 710.411 130.16 790.995 200.557C872.262 272.713 924.203 371.383 930.758 480.544C937.676 590.513 899.905 698.618 826.008 780.351C765.033 848.958 683.455 895.943 593.513 914.257C570.608 918.896 549.628 921.136 526.367 922.479C494.501 922.773 464.136 921.001 432.693 914.827C247.534 878.467 100.796 715.439 92.6987 524.953C88.2983 417.707 126.632 313.096 199.285 234.085C276.34 149.126 384.646 99.1756 499.291 95.7229Z"/><path fill="#FEFEFE" transform="matrix(3.36914 0 0 3.36914 0.000488281 0)" d="M440.097 110.152C477.669 103.814 524.607 101.499 562.407 107.221C601.46 111.848 649.307 123.907 684.689 141.663C735.55 164.592 781.099 197.826 818.455 239.263C814.953 239.98 809.335 242.185 805.698 243.476C798.051 246.232 790.38 248.923 782.687 251.551C767.024 256.978 751.41 262.548 735.848 268.258C724.309 272.381 712.418 276.218 700.989 280.596C684.811 286.924 668.532 292.991 652.159 298.793C643.984 301.743 633.163 305.992 624.826 308.218C622.007 296.173 620.445 289.515 619.879 276.99C630.171 285.949 642.524 287.057 653.687 278.78C650.784 278.98 642.053 279.597 640.019 277.497C640.483 275.083 652.506 268.741 655.82 265.86C638.542 270.479 627.748 269.327 616.945 254.399C616.55 272.508 616.038 289.21 610.618 306.624C610.032 308.505 608.774 312.691 608.489 314.548C603.494 315.826 579.038 324.845 575.864 327.887C569.671 325.814 566.959 323.753 562.413 319.231C562.148 324.05 561.674 329.919 561.574 334.667C560.444 348.064 557.15 360.229 550.42 372.02C548.474 375.429 545.229 378.816 543.67 382.292C546.304 384.358 547.327 384.629 549.488 387.344C550.761 398.618 549.444 411.183 549.817 422.568C549.961 426.96 553.287 432.06 553.398 436.745C553.947 459.836 553.396 483.113 553.594 506.204C553.661 514.119 553.154 527.718 553.994 535.005C550.545 535.815 547.434 536.91 544.096 538.081C528.667 543.493 513.455 548.986 498.648 555.954C493.725 571.327 486.724 592.253 483.204 607.912C476.733 609.335 441.535 623.544 434.888 627.052C432.056 633.945 428.38 640.909 425.122 647.667C420.692 656.901 416.47 666.233 412.457 675.655C404.852 678.319 390.482 686.634 383.877 691.49C399.195 696.314 409.185 696.1 425.175 696.658L471.411 698.103C509.472 699.224 548.377 701.007 585.924 707.089C592.798 708.202 602.894 709.401 609.34 710.884C619.796 711.487 637.97 713.152 647.847 712.876C634.434 710.317 618.784 704.326 606.041 702.309C667.907 677.322 742.472 666.907 808.939 661.478C835.769 659.059 862.687 657.733 889.625 657.502L884.156 668.975C838.067 767.918 754.291 844.298 651.521 881.071C641.994 884.523 632.344 887.627 622.591 890.375C622.415 890.429 622.24 890.483 622.065 890.537C522.177 918.977 415.145 907.475 323.58 858.462C311.165 852.219 293.737 841.472 282.519 833.237C279.888 832.047 258.863 815.808 254.962 812.853C254.894 812.835 254.821 812.832 254.758 812.8C250.86 810.863 242.377 802.534 238.428 799.178C195.058 762.308 146.801 695.076 129.656 641.027C128.746 639.037 128.011 636.506 127.203 634.414C116.303 606.183 109.661 576.797 106.678 546.773C101.697 519.888 103.744 480.492 106.427 453.479C107.405 446.16 108.522 438.86 109.779 431.583C115.679 404.228 121.959 377.056 134.085 351.572C144.178 328.577 152.362 313.111 166.094 291.474C174.704 277.178 189.066 259.577 199.688 246.787C214.012 230.167 224.605 219.743 240.74 205.087C258.507 190.183 271.493 180.149 291.048 167.773C296.526 163.889 302.906 160.655 308.63 157.255C325.825 147.04 343.117 139.784 361.426 131.877C385.456 122.324 414.675 114.601 440.097 110.152Z"/><path fill="#FEEFC6" transform="matrix(3.36914 0 0 3.36914 0.000488281 0)" d="M606.041 702.309C667.907 677.322 742.472 666.907 808.939 661.478C835.769 659.059 862.687 657.733 889.625 657.502L884.156 668.975C838.067 767.918 754.291 844.298 651.521 881.071C641.994 884.523 632.344 887.627 622.591 890.375C622.415 890.429 622.24 890.483 622.065 890.537C522.177 918.977 415.145 907.475 323.58 858.462C328.339 856.749 336.813 855.708 342.144 854.584C353.979 851.979 365.791 849.266 377.577 846.445C422.752 835.913 472.15 824.297 515.637 808.882C501.567 805.539 486.651 802.771 473.095 797.644C489.243 793.6 511.914 790.762 528.94 787.973C550.585 784.569 572.033 780.008 593.19 774.309C581.007 772.68 565.942 769.821 554.385 768.628C561.249 765.574 567.396 763.592 574.481 761.329C593.205 755.349 624.478 750.743 631.386 729.408C627.418 719.685 617.047 717.008 609.34 710.884C619.796 711.487 637.97 713.152 647.847 712.876C634.434 710.317 618.784 704.326 606.041 702.309Z"/><path fill="#FED470" transform="matrix(3.36914 0 0 3.36914 0.000488281 0)" d="M673.13 696.551C686.022 691.834 713.262 687.676 727.325 685.42C754.042 680.983 780.889 677.368 807.828 674.579C833.219 671.755 858.585 669.38 884.156 668.975C838.067 767.918 754.291 844.298 651.521 881.071C641.994 884.523 632.344 887.627 622.591 890.375C614.626 881.584 610.349 872.998 598.342 868.933C593.843 867.41 588.99 866.686 584.694 864.597C582.46 863.511 579.86 861.823 579.264 859.222C575.999 844.97 647.285 820.639 654.184 807.733C654.642 806.875 654.459 806.922 654.195 806.075C648.989 801.466 627.217 796.839 618.942 793.626L618.208 793.337C629.497 789.324 643.392 786.028 655.236 782.044C677.728 774.329 699.545 764.772 720.465 753.471C713.666 752.146 681.383 748.14 677.994 746.199C676.988 745.624 676.917 745.455 676.646 744.4C679.681 739.005 717.133 729.27 727.168 719.118C719.138 709.039 685.874 707.612 673.13 696.551Z"/><path fill="#239492" transform="matrix(3.36914 0 0 3.36914 0.000488281 0)" d="M164.502 646.767C168.88 643.94 224.944 643.704 235.297 641.564C238.555 640.891 267.008 638.362 270.019 638.576C270.143 641.936 270.15 644.7 270.059 648.063C275.587 648.541 281.102 649.158 286.599 649.911C324.701 650.322 360.31 656.493 396.892 656.65C380.443 672.039 364.531 680.114 344.036 689.095C335.509 692.831 329.166 695.956 320.117 698.897C327.821 700.116 335.308 702.142 342.906 703.35C391.2 711.028 439.411 709.564 487.856 716.942C493.479 720.306 526.421 727.896 516.049 738.08C502.524 751.361 476.212 756.012 458.354 760.535C463.089 762.067 467.797 762.773 468.519 768.451C431.73 773.408 399.674 777.004 363.812 787.889C371.712 788.011 375.261 788.15 383.077 789.863C385.137 791.398 387.344 792.761 388.734 794.855C387.716 801.84 340.645 806.077 332.925 806.765C322.46 807.698 310.947 806.867 300.668 809.116C285.325 812.473 270.455 811.803 254.962 812.853C254.894 812.835 254.821 812.832 254.758 812.8C250.86 810.863 242.377 802.534 238.428 799.178C195.058 762.308 146.801 695.076 129.656 641.027C142.988 641.809 151.879 642.384 164.502 646.767Z"/><path fill="#8FCCC5" transform="matrix(3.36914 0 0 3.36914 0.000488281 0)" d="M164.502 646.767C168.88 643.94 224.944 643.704 235.297 641.564C238.555 640.891 267.008 638.362 270.019 638.576C270.143 641.936 270.15 644.7 270.059 648.063C275.587 648.541 281.102 649.158 286.599 649.911C276.247 650.553 265.168 652.043 254.815 652.808C229.135 654.706 189.012 655.747 164.502 646.767Z"/><path fill="#8FCCC5" transform="matrix(3.36914 0 0 3.36914 0.000488281 0)" d="M437.96 724.709C440.008 724.604 442.058 724.555 444.109 724.562C452.546 724.529 469.459 725.062 475.747 731.79C476.616 732.719 477.249 733.909 477.098 735.219C476.84 737.451 474.705 739.408 473.014 740.668C454.439 754.524 384.667 762.179 360.749 762.99C349.496 763.372 338.548 762.967 327.383 761.404C315.885 759.363 304.74 756.097 293.295 753.657C319.894 753.127 421.692 747.519 441.443 734.347C442.761 733.467 443.382 732.769 443.662 731.214C442.128 727.899 435.759 727.769 433.487 725.512C434.803 724.683 436.344 724.803 437.96 724.709Z"/><path fill="#8FCCC5" transform="matrix(3.36914 0 0 3.36914 0.000488281 0)" d="M237.096 714.063C264.399 715.48 291.229 719.604 319.173 720.436C349.29 721.332 378.555 718.277 408.129 718.591C404.482 719.691 401.437 720.85 397.873 722.221C392.574 724.26 386.864 726.362 381.374 727.776C341.002 737.993 298.544 736.383 259.062 723.139C253.473 721.239 242.017 716.974 237.096 714.063Z"/><path fill="#8FCCC5" transform="matrix(3.36914 0 0 3.36914 0.000488281 0)" d="M299.866 668.215C311.661 667.161 339.174 670.197 351.398 672.886C323.532 679.879 303.954 681.571 275.229 682.84C255.486 683.427 240.464 682.868 221.3 677.62C246.47 672.352 274.152 669.778 299.866 668.215Z"/><path fill="#FEEFC6" transform="matrix(3.36914 0 0 3.36914 0.000488281 0)" d="M684.689 141.663C735.55 164.592 781.099 197.826 818.455 239.263C814.953 239.98 809.335 242.185 805.698 243.476C798.051 246.232 790.38 248.923 782.687 251.551C767.024 256.978 751.41 262.548 735.848 268.258C724.309 272.381 712.418 276.218 700.989 280.596C684.811 286.924 668.532 292.991 652.159 298.793C643.984 301.743 633.163 305.992 624.826 308.218C622.007 296.173 620.445 289.515 619.879 276.99C630.171 285.949 642.524 287.057 653.687 278.78C650.784 278.98 642.053 279.597 640.019 277.497C640.483 275.083 652.506 268.741 655.82 265.86C638.542 270.479 627.748 269.327 616.945 254.399C616.55 272.508 616.038 289.21 610.618 306.624C610.032 308.505 608.774 312.691 608.489 314.548C603.494 315.826 579.038 324.845 575.864 327.887C569.671 325.814 566.959 323.753 562.413 319.231C562.148 324.05 561.674 329.919 561.574 334.667C552.15 336.874 536.814 343.956 527.342 347.832C505.055 356.953 483.063 366.794 460.666 375.724C454.436 366.69 449.325 362.12 441.376 354.745C443.04 353.131 444.817 351.76 446.55 350.24C472.66 327.329 498.431 304.231 524.767 281.558L623.229 195.379L662.524 161.28C666.89 157.541 681.344 145.521 684.689 141.663Z"/><path fill="#037578" transform="matrix(3.36914 0 0 3.36914 0.000488281 0)" d="M675.685 227.695C687.552 226.364 697.466 232.788 704.168 242C720.141 231.777 733.002 234.614 747.563 245.338C740.572 244.1 732.986 244.065 725.937 244.827C716.242 246.688 709.082 249.798 701.822 256.457C690.212 240.217 678.624 233.848 658.739 233.663C665.38 230.101 668.129 228.401 675.685 227.695Z"/><path fill="#72C1B9" transform="matrix(3.36914 0 0 3.36914 0.000488281 0)" d="M106.678 546.773C121.007 546.935 135.335 547.213 149.659 547.605C155.825 547.726 168.201 547.648 173.959 548.357C180.266 549.414 198.06 549.587 204.922 549.74L256.652 550.957C265.021 551.122 276.146 550.892 284.273 551.515C286.423 554.743 289.403 557.725 292.076 560.578C332.538 562.485 373.016 564.061 413.505 565.303L450.37 566.399C458.262 566.588 466.236 566.483 474.092 567.072C471.455 575.678 468.748 584.326 466.217 592.959C454.806 597.361 435.592 604.535 425.09 609.964C419.339 612.938 408.581 635.267 405.526 642.169L404.737 643.977C382.28 643.753 359.832 642.95 337.416 641.57C313.671 639.91 293.815 635.929 270.019 638.576C267.008 638.362 238.555 640.891 235.297 641.564C224.944 643.704 168.88 643.94 164.502 646.767C151.879 642.384 142.988 641.809 129.656 641.027C128.746 639.037 128.011 636.506 127.203 634.414C116.303 606.183 109.661 576.797 106.678 546.773Z"/><path fill="#FEFEFE" transform="matrix(3.36914 0 0 3.36914 0.000488281 0)" d="M257.73 610.773C289.405 609.838 315.015 609.59 346.227 615.446C328.135 619.723 315.327 619.978 296.812 619.092C268.096 618.613 239.426 616.606 210.924 613.078C213.903 611.915 251.924 610.921 257.73 610.773Z"/><path fill="#FEEFC6" transform="matrix(3.36914 0 0 3.36914 0.000488281 0)" d="M331.183 585.714C355.929 584.398 384.345 585.852 408.479 591.709C399.938 592.739 391.351 593.352 382.75 593.546C362.488 594.166 341.86 592.899 321.851 589.827C316.012 588.93 310.457 588.662 304.509 587.531C313.632 586.54 322.022 586.166 331.183 585.714Z"/><path fill="#FEEFC6" transform="matrix(3.36914 0 0 3.36914 0.000488281 0)" d="M257.293 575.215C273.999 573.865 294.454 577.001 311.168 578.396C302.091 582.796 284.837 582.655 274.875 582.496C258.335 581.78 236.933 579.622 220.347 577.997C227.119 576.448 248.68 575.727 257.293 575.215Z"/><path fill="#FEEFC6" transform="matrix(3.36914 0 0 3.36914 0.000488281 0)" d="M365.63 602.698C376.314 602.529 383.21 603.748 393.341 606.184C386.141 607.84 379.736 608.846 372.337 609.085C364.363 609.179 352.015 607.218 343.94 605.963C350.774 604.924 358.962 603.184 365.63 602.698Z"/><path fill="#FEEFC6" transform="matrix(3.36914 0 0 3.36914 0.000488281 0)" d="M222.161 558.962C235.583 559.385 256.072 560.048 269.271 562.466C254.458 563.605 230.165 561.527 215.088 559.878L215.515 559.197C217.853 558.939 219.823 558.97 222.161 558.962Z"/><path fill="#8FCCC5" transform="matrix(3.36914 0 0 3.36914 0.000488281 0)" d="M215.088 559.878C212.881 559.886 210.569 559.738 208.355 559.634L207.996 558.905L207.537 559.033C211.539 558.095 218.123 558.233 222.161 558.962C219.823 558.97 217.853 558.939 215.515 559.197L215.088 559.878Z"/><path fill="#239492" transform="matrix(3.36914 0 0 3.36914 0.000488281 0)" d="M375.873 498.16C390.151 490.479 427.844 467.85 442.468 466.745C452.357 465.999 462.049 470.348 472.072 468.353C476.171 467.537 479.582 465.327 483.143 463.274C491.864 458.248 500.908 457.833 510.443 460.707C519.721 463.504 527.85 469.314 535.53 475.059L534.916 520.031C524.998 523.488 496.634 533.459 489.133 538.815C485.273 541.597 482.13 545.256 479.964 549.493C479.253 550.917 478.428 552.945 477.908 554.439C472.405 554.481 466.903 554.502 461.4 554.447C402.391 553.847 343.274 551.838 284.273 551.515C276.146 550.892 265.021 551.122 256.652 550.957L204.922 549.74C198.06 549.587 180.266 549.414 173.959 548.357C182.415 537.082 186.02 533.815 200.489 538.2C206.594 525.018 212.662 516.381 228.366 522.655C232.04 517.107 235.745 512.558 241.168 508.562C245.727 510.65 249.258 512.711 253.581 515.204C252.216 528.795 254.082 534.18 267.216 539.069L267.897 538.968C269.278 536.666 270.327 534.541 272.477 532.869C291.178 518.328 310.29 501.385 332.042 491.74C344.811 486.079 363.641 492.916 375.873 498.16Z"/><path fill="#FEEFC6" transform="matrix(3.36914 0 0 3.36914 0.000488281 0)" d="M440.097 110.152C477.669 103.814 524.607 101.499 562.407 107.221C560.812 109.119 559.213 112.498 557.743 114.726C547.058 130.923 537.14 147.603 526.807 164.013L448.93 288.048C438.599 304.295 426.757 324.32 415.899 339.767C406.781 335.091 400.669 333.24 390.649 330.612C401.484 287.513 410.524 245.312 420.42 202.079L433.556 144.999C434.763 139.704 441.489 113.803 440.097 110.152Z"/><path fill="#FEEFC6" transform="matrix(3.36914 0 0 3.36914 0.000488281 0)" d="M291.048 167.773C296.526 163.889 302.906 160.655 308.63 157.255C325.825 147.04 343.117 139.784 361.426 131.877C362.356 138.935 362.15 149.972 362.155 157.274L362.024 199.188C362.099 228.766 361.956 258.345 361.593 287.921C361.483 301.202 361.679 315.049 361.28 328.269C353.183 328.63 347.24 329.347 339.298 331.159C328.373 292.626 317.238 254.153 305.893 215.741C302.597 204.635 299.245 193.55 295.91 182.456C294.595 178.081 292.082 171.862 291.048 167.773Z"/><path fill="#FEEFC6" transform="matrix(3.36914 0 0 3.36914 0.000488281 0)" d="M166.094 291.474C176.656 298.266 187.338 307.116 197.546 314.461C209.631 323.156 221.515 331.749 233.491 340.621L261.552 361.392C265.351 364.219 271.977 368.844 275.334 371.918C270.042 377.631 264.86 384.73 261.859 391.959C219.163 376.487 176.583 365.589 134.085 351.572C144.178 328.577 152.362 313.111 166.094 291.474Z"/><path fill="#FEEFC6" transform="matrix(3.36914 0 0 3.36914 0.000488281 0)" d="M240.74 205.087C243.78 209.245 249.074 219.693 251.74 224.67L271.725 262.357C280.203 278.558 288.788 294.704 297.478 310.793C302.64 320.433 308.565 331.027 313.281 340.795C306.214 344.594 301.719 347.442 295.089 352.27L221.751 271.131C217.269 266.102 212.727 261.126 208.126 256.206C205.987 253.922 201.202 249.19 199.688 246.787C214.012 230.167 224.605 219.743 240.74 205.087Z"/><path fill="#72C1B9" transform="matrix(3.36914 0 0 3.36914 0.000488281 0)" d="M383.077 789.863C393.015 789.674 440.541 792.09 442.766 802.087C442.069 804.33 440.477 805.315 438.515 806.389C410.685 821.616 317.838 829.267 282.519 833.237C279.888 832.047 258.863 815.808 254.962 812.853C270.455 811.803 285.325 812.473 300.668 809.116C310.947 806.867 322.46 807.698 332.925 806.765C340.645 806.077 387.716 801.84 388.734 794.855C387.344 792.761 385.137 791.398 383.077 789.863Z"/><path fill="#FEEFC6" transform="matrix(3.36914 0 0 3.36914 0.000488281 0)" d="M109.779 431.583C119.973 429.797 130.145 426.837 140.296 424.755C163.718 419.949 181.12 424.572 201.667 435.582C214.557 429.01 226.259 424.846 240.874 429.31C248.268 431.569 254.77 437.011 260.945 441.651C238.816 439.379 218.673 443.842 201.509 458.53C169.695 434.983 141.454 443.75 106.427 453.479C107.405 446.16 108.522 438.86 109.779 431.583Z"/><path fill="#72C1B9" transform="matrix(3.36914 0 0 3.36914 0.000488281 0)" d="M487.856 716.942C503.777 715.605 542.383 720.209 554.711 730.267C556.288 731.554 557.803 733.311 558.084 735.406C558.429 737.976 556.869 740.484 555.222 742.304C543.63 755.109 487.294 767.989 469.046 768.462C468.87 768.467 468.694 768.455 468.519 768.451C467.797 762.773 463.089 762.067 458.354 760.535C476.212 756.012 502.524 751.361 516.049 738.08C526.421 727.896 493.479 720.306 487.856 716.942Z"/><path fill="#FED470" transform="matrix(3.36914 0 0 3.36914 0.000488281 0)" d="M357.662 346.693C360.369 346.325 364.389 346.285 367.194 346.295C415.001 346.463 456.088 380.933 465.861 427.337C451.072 418.346 437.739 414.761 420.246 416.457C401.864 418.342 385.251 428.246 374.853 443.521C372.814 446.54 370.67 452.573 368.849 454.769L367.888 454.59C344.011 449.564 326.142 457.108 307.932 472.505C295.524 455.782 286.414 447.199 265.789 442.276C267.349 420.16 276.057 399.778 289.987 382.674C306.81 362.093 331.193 349.13 357.662 346.693Z"/><path fill="#FEFEFE" transform="matrix(3.36914 0 0 3.36914 0.000488281 0)" d="M624.826 308.218C633.163 305.992 643.984 301.743 652.159 298.793C668.532 292.991 684.811 286.924 700.989 280.596C712.418 276.218 724.309 272.381 735.848 268.258C751.41 262.548 767.024 256.978 782.687 251.551C790.38 248.923 798.051 246.232 805.698 243.476C809.335 242.185 814.953 239.98 818.455 239.263C860.576 286.965 889.741 336.138 907.331 397.923C909.683 408.447 912.646 418.879 914.863 429.417C919.686 452.344 920.876 473.099 921.559 496.305L914.155 495.01C914.069 498.771 914.531 502.005 912.204 504.861L911.214 505.079C908.06 502.832 908.462 497.632 908.51 494.18C905.308 493.578 902.516 493.137 899.428 492.068L899.456 502.538C896.682 501.791 893.849 500.988 891.061 500.322C890.896 497.005 890.766 493.589 890.533 490.285C883.422 488.881 875.335 487.474 868.522 485.175L868.632 496.437C865.643 495.645 862.56 494.724 859.513 494.293C859.399 490.342 859.293 486.575 858.99 482.635C854.39 481.525 845.757 479.698 841.559 478.318L841.45 490.259C838.238 489.365 836.402 488.871 833.087 488.354L831.931 476.257C826.976 475.364 823.188 474.421 818.357 473.153C818.141 475.958 817.916 478.635 817.879 481.456C813.938 480.042 811.434 479.228 807.384 478.244C807.317 466.375 806.882 454.757 806.982 442.857C802.079 442.178 798.05 441.025 793.383 439.341C793.292 444.56 793.082 450.321 793.135 455.496C789.821 454.436 788.65 454.092 785.209 453.607C784.917 448.136 784.536 442.364 784.485 436.905C779.771 436.004 775.116 434.817 770.545 433.353C770.512 438.078 770.632 444.141 770.283 448.756C767.425 447.77 764.428 446.647 761.489 446.008C761.265 440.887 761.075 435.765 760.919 430.643C756.362 429.64 751.802 428.74 747.381 427.249L747.188 439.714L747.211 440.166C746.112 440.938 740.435 439.625 738.505 439.322C738.53 435.447 738.742 427.909 738.198 424.318C734.053 423.28 727.586 419.972 723.796 424.118C719.531 428.785 720.873 436.626 720.774 442.561C720.705 446.622 720.885 451.098 720.947 455.267C716.951 453.811 713.599 452.987 709.466 452.117C709.559 447.531 708.892 424.105 709.883 421.831C715.3 409.403 714.431 410.526 714.731 395.792C714.98 386.869 715.082 377.942 715.04 369.016C717.654 367.545 719.345 366.921 722.1 365.855C705.06 345.81 704.448 331.287 701.885 306.505C710.29 314.255 718.797 315.399 728.706 310.116C723.741 309.015 720.922 307.807 716.357 305.666C722.273 302.412 725.063 300.859 730.227 296.514C715.847 298.706 706.929 297.197 697.619 285.286C698.016 305.513 695.148 328.652 685.558 346.755C682.859 351.848 678.324 357.536 674.758 362.135L681.205 364.192C681.622 370.998 681.278 378.724 681.073 385.557L674.596 385.393C674.562 389.789 674.347 394.182 673.951 398.56C671.541 397.72 669.973 397.331 667.515 396.749L667.544 383.316C662.585 382.736 658.353 381.856 653.482 380.869C653.512 385.133 654.558 395.373 649.41 396.509C644.363 394.117 645.5 384.061 645.66 379.275C642.213 378.235 639.021 377.557 635.504 376.784C635.906 367.823 635.852 357.874 636 348.843L641.985 346.147C631.39 330.629 630.084 326.271 624.826 308.218Z"/><path fill="#FEEFC6" transform="matrix(3.36914 0 0 3.36914 0.000488281 0)" d="M907.331 397.923C909.683 408.447 912.646 418.879 914.863 429.417C919.686 452.344 920.876 473.099 921.559 496.305L914.155 495.01C914.069 498.771 914.531 502.005 912.204 504.861L911.214 505.079C908.06 502.832 908.462 497.632 908.51 494.18C905.308 493.578 902.516 493.137 899.428 492.068L899.456 502.538C896.682 501.791 893.849 500.988 891.061 500.322C890.896 497.005 890.766 493.589 890.533 490.285C883.422 488.881 875.335 487.474 868.522 485.175L868.632 496.437C865.643 495.645 862.56 494.724 859.513 494.293C859.399 490.342 859.293 486.575 858.99 482.635C854.39 481.525 845.757 479.698 841.559 478.318L841.45 490.259C838.238 489.365 836.402 488.871 833.087 488.354L831.931 476.257C826.976 475.364 823.188 474.421 818.357 473.153C818.141 475.958 817.916 478.635 817.879 481.456C813.938 480.042 811.434 479.228 807.384 478.244C807.317 466.375 806.882 454.757 806.982 442.857C802.079 442.178 798.05 441.025 793.383 439.341C793.292 444.56 793.082 450.321 793.135 455.496C789.821 454.436 788.65 454.092 785.209 453.607C784.917 448.136 784.536 442.364 784.485 436.905C779.771 436.004 775.116 434.817 770.545 433.353C770.512 438.078 770.632 444.141 770.283 448.756C767.425 447.77 764.428 446.647 761.489 446.008C761.265 440.887 761.075 435.765 760.919 430.643C756.362 429.64 751.802 428.74 747.381 427.249L747.188 439.714L747.211 440.166C746.112 440.938 740.435 439.625 738.505 439.322C738.53 435.447 738.742 427.909 738.198 424.318L739.88 423.678L740.036 423.452C744.233 421.065 895.653 398.719 907.331 397.923Z"/><path fill="#FEFEFE" transform="matrix(3.36914 0 0 3.36914 0.000488281 0)" d="M738.198 424.318L739.88 423.678L740.4 425.188C742.532 426.019 745.311 426.487 746.524 427.693C747.494 431.938 746.485 435.609 747.188 439.714L747.211 440.166C746.112 440.938 740.435 439.625 738.505 439.322C738.53 435.447 738.742 427.909 738.198 424.318Z"/><path fill="#037578" transform="matrix(3.36914 0 0 3.36914 0.000488281 0)" d="M753.45 308.594C765.63 307.416 773.985 310.61 781.768 320.212C796.611 312.842 806.863 312.811 820.801 322.05C815.247 321.521 810.859 321.656 805.346 322.162C797.886 323.04 784.682 328.156 779.122 332.966C769.332 319.324 757.378 314.948 741.286 312.928C745.585 311.213 748.962 309.833 753.45 308.594Z"/><path fill="#FEFEFE" transform="matrix(3.36914 0 0 3.36914 0.000488281 0)" d="M657.643 539.209C667.041 538.433 689.998 538.847 699.761 539.397C665.422 547.181 636.168 562.748 601.744 568.142C594.235 575.609 588.773 582.113 580.351 589.312C571.183 597.147 563.025 602.401 553.356 609.42C554.471 592.353 553.997 588.701 566.214 575.982C559.755 577.502 553.275 578.933 546.776 580.273C533.731 583.984 510.916 612.205 502.276 622.949C505.835 610.173 513.26 570.868 520.433 562.708C532.719 548.732 635.642 540.621 657.643 539.209Z"/><path fill="#FEFEFE" transform="matrix(3.36914 0 0 3.36914 0.000488281 0)" d="M617.494 422.688C619.101 427.205 617.53 508.521 617.919 519.174C613.95 519.614 610.298 520.633 606.435 521.607C606.337 514.4 608.204 487.097 601.869 483.495C581.535 471.933 585.864 517.366 586.884 526.579C583.071 527.58 579.064 528.475 575.217 529.391C570.962 530.451 566.717 531.554 562.484 532.698L562.498 433.253L573.798 430.935C573.798 434.673 573.108 440.641 576.395 443.079L577.521 442.742C580.655 438.919 580.007 434.095 579.68 429.474C585.215 428.19 590.78 427.041 596.371 426.029C596.268 430.048 595.703 434.831 598.561 437.891C603.192 438.291 602.673 428.237 602.652 425.306C607.624 424.576 612.573 423.703 617.494 422.688Z"/><path fill="#FEFEFE" transform="matrix(3.36914 0 0 3.36914 0.000488281 0)" d="M575.864 327.887C579.038 324.845 603.494 315.826 608.489 314.548C603.223 330.543 600.859 334.331 591.462 348.231C594.306 348.734 596.649 349.118 599.532 349.436C599.596 359.531 599.942 371.038 599.615 381.023L592.72 380.801L593.088 397.656C597.025 397.05 601.573 396.233 605.486 395.82C605.488 382.953 604.81 360.024 605.839 347.935C610.399 347.861 614.957 347.678 619.508 347.387L619.418 383.268C619.341 392.092 618.986 401.526 619.46 410.283L583.14 418.938C575.264 420.81 566.082 423.22 558.143 424.313C557.982 410.888 558.081 397.461 558.439 384.04C562.175 383.931 565.908 383.744 569.636 383.478C569.868 389.454 569.987 396.274 570.419 402.182L578.515 401.727C578.55 395.832 578.461 388.954 579.139 383.159L585.959 381.13C577.611 368.52 572.527 358.22 569.379 343.294C568.999 341.491 567.813 337.967 568.115 336.351C570.763 335.82 573.012 336.523 575.742 336.578C581.992 336.704 588.446 333.54 593.738 330.547C586.49 330.03 582.96 329.728 575.864 327.887Z"/><path fill="#FEFEFE" transform="matrix(3.36914 0 0 3.36914 0.000488281 0)" d="M670.965 512.741C744.72 512.537 843.934 523.983 907.167 564.044C903.254 562.749 899.281 561.313 895.379 559.954C875.114 553.204 854.533 547.444 833.709 542.693C795.532 534.132 758.481 529.257 719.92 523.503C697.21 520.114 677.79 515.648 654.486 513.329C659.656 512.881 665.717 512.872 670.965 512.741Z"/><path fill="#FEFEFE" transform="matrix(3.36914 0 0 3.36914 0.000488281 0)" d="M719.175 555.623L719.432 555.676L719.559 556.144C712.452 563.974 690.53 588.01 681.694 592.901C667.751 600.619 634.749 606.055 618.144 609.739L617.765 609.793L617.533 609.352C626.575 599.225 647.038 579.599 657.945 572.914C671.758 564.449 702.878 559.246 719.175 555.623Z"/><path fill="#FEEFC6" transform="matrix(3.36914 0 0 3.36914 0.000488281 0)" d="M575.173 623.655L575.266 624.132C573.577 627.462 568.072 632.471 565.362 635.143C546.12 654.113 526.619 666.036 503.406 679.454C503.431 675.867 510.616 659.277 512.766 655.342C521.056 640.168 531.751 636.574 547.42 631.69C556.725 628.79 565.887 626.382 575.173 623.655Z"/><path fill="#FEFEFE" transform="matrix(3.36914 0 0 3.36914 0.000488281 0)" d="M488.626 617.043C488.907 617.279 489.188 617.516 489.469 617.752C488.304 634.967 449.039 657.889 435.262 666.853L434.774 666.856L434.487 666.268C436.103 661.049 440.434 651.722 442.809 646.678C451.2 628.856 470.59 622.66 488.626 617.043Z"/><path fill="#FEEFC6" transform="matrix(3.36914 0 0 3.36914 0.000488281 0)" d="M613.334 627.014L613.523 627.132C613.617 628.02 602.067 662.751 600.902 668.196C593.849 671.053 575.808 677.94 569.85 681.38L569.478 680.766C571.227 674.555 572.462 667.99 575.477 662.233C580.68 652.297 603.874 635.347 613.334 627.014Z"/><path fill="#FEFEFE" transform="matrix(3.36914 0 0 3.36914 0.000488281 0)" d="M688.037 364.448C690.904 364.915 694.894 365.084 697.873 365.29C697.403 372.199 697.535 380.642 697.48 387.678C693.857 387.013 691.615 386.982 687.906 386.867C687.888 379.394 687.932 371.921 688.037 364.448Z"/><path fill="#FEEFC6" transform="matrix(3.36914 0 0 3.36914 0.000488281 0)" d="M643.707 406.983C648.792 407.156 649.603 410.822 651.312 414.939C649.374 420.059 649.041 422.697 643.279 423.936C638.44 421.162 637.766 418.759 635.617 413.699C638.495 410.248 639.557 408.99 643.707 406.983Z"/><path fill="#FEEFC6" transform="matrix(3.36914 0 0 3.36914 0.000488281 0)" d="M617.844 337.704C621.377 339.031 620.95 343.07 617.238 344.92C615.581 344.491 616.096 344.853 614.956 343.774C614.693 340.946 615.911 340.126 617.844 337.704Z"/></svg>

