<svg xmlns="http://www.w3.org/2000/svg" width="3450" height="3450" viewBox="220 220 3010 3010"><path fill="#037578" d="M462.715 894.544c30.827-44.331 65.54-92.433 100.882-133.432 224.995-262.32 532.469-440.379 871.977-504.955 88.073-15.87 173.841-29.283 263.302-26.333 48.303 1.592 100.78-2.416 148.73 1.301a1548.96 1548.96 0 0 1 748.495 268.27c328.313 225.647 552.711 573.258 623.187 965.355 5.606 31.36 10.084 63.064 14.4 94.646 1.583 11.577 5.943 27.058 5.926 38.462-.128 82.093 1.597 165.095-.415 247.083-.461 18.81-8.011 50.985-10.831 70.449a1509.14 1509.14 0 0 1-255.118 652.74c-232.367 333.94-588.694 561.02-989.53 630.606-39.096 6.906-87.328 14.066-126.835 19.958-39.884 5.954-93.746-2.61-134.712.718-38.7-.115-79.643 1.129-117.936-.24-19.1-.68-50.612-8.15-71.214-10.595-84.744-10.064-166.496-28.685-248.295-52.953-47.717-14.157-93.588-32.573-140.113-49.742l-14.288-5.994a1582 1582 0 0 1-181.492-92.314c-344.967-204.914-594.627-538.234-694.257-926.908-13.916-54.627-24.215-119.126-32.528-174.747-2.352-26.74-11.193-58.95-11.288-85.26-.253-70.179-1.852-141.631.326-211.69.836-26.892 9.017-64.215 12.895-91.569 18.771-132.41 53.666-263.302 107.91-385.726a1649 1649 0 0 1 79.928-156.941c15.215-25.872 32.438-50.891 47.717-76.662 1.064-.593 2.284-2.422 3.177-3.527"/><path fill="#8fccc5" d="M1678.826 282.054q3.716-.138 7.432-.237c403.765-10.606 772.4 136.829 1064.015 414.743 268.669 258.844 423.75 613.648 431.257 986.642 6.583 378.867-137.906 744.775-401.565 1016.928-259.868 271.098-630.369 443.082-1006.968 452.071-382.037 11.506-753.347-127.266-1034.191-386.514-283.146-258.424-452.33-618.527-470.503-1001.44C254.991 1391.4 390.302 1028.53 644.487 755.432c273.045-298.84 632.475-455.2 1034.34-473.378"/><path fill="#037578" d="M1682.182 322.504c360.363-10.096 711.293 116.023 982.791 353.2 273.8 243.104 448.797 575.537 470.881 943.316 23.308 370.501-103.948 734.722-352.917 1010.092a1429.57 1429.57 0 0 1-783.308 451.148c-77.17 15.63-147.855 23.176-226.224 27.7-107.361.991-209.665-4.979-315.601-25.78-623.827-122.502-1118.208-671.766-1145.489-1313.54-14.825-361.327 114.326-713.776 359.105-979.975 259.609-286.239 624.507-454.529 1010.762-466.161"/><path fill="#fefefe" d="M1482.749 371.118c126.585-21.354 284.726-29.154 412.08-9.875 131.574 15.589 292.778 56.217 411.985 116.04A1358.5 1358.5 0 0 1 2757.49 806.11c-11.799 2.415-30.727 9.844-42.98 14.194a4911 4911 0 0 1-77.527 27.206 9243 9243 0 0 0-157.808 56.288c-38.876 13.89-78.939 26.818-117.444 41.568a5437 5437 0 0 1-164.516 61.308c-27.542 9.94-64 24.255-92.088 31.755-9.498-40.582-14.76-63.013-16.667-105.212 34.675 30.184 76.294 33.917 113.904 6.03-9.781.675-39.197 2.753-46.05-4.322 1.563-8.133 42.07-29.5 53.236-39.206-58.212 15.562-94.579 11.68-130.975-38.614-1.331 61.012-3.056 117.283-21.317 175.953-1.974 6.338-6.213 20.44-7.173 26.697-16.829 4.306-99.224 34.692-109.918 44.941-20.865-6.984-30.002-13.928-45.318-29.163-.893 16.236-2.49 36.01-2.827 52.006-3.807 45.136-14.905 86.122-37.58 125.847-6.556 11.486-17.489 22.897-22.741 34.608 8.874 6.96 12.32 7.874 19.601 17.021 4.29 37.984-.148 80.317 1.109 118.675.485 14.797 11.69 31.98 12.065 47.764 1.85 77.797-.007 156.22.66 234.017.226 26.667-1.482 72.484 1.348 97.035-11.62 2.729-22.102 6.418-33.348 10.363-51.982 18.234-103.234 36.74-153.12 60.217-16.587 51.794-40.174 122.296-52.034 175.054-21.801 4.794-140.388 52.666-162.783 64.485-9.541 23.223-21.926 46.686-32.903 69.455a2317 2317 0 0 0-42.67 94.295c-25.622 8.976-74.037 36.99-96.29 53.35 51.608 16.253 85.266 15.532 139.139 17.412l155.775 4.869c128.233 3.777 259.31 9.784 385.81 30.275 23.16 3.75 57.175 7.79 78.892 12.786 35.228 2.031 96.459 7.64 129.736 6.711-45.19-8.622-97.918-28.806-140.85-35.602 208.435-84.184 459.655-119.274 683.591-137.565a3347 3347 0 0 1 271.843-13.396l-18.426 38.654c-155.28 333.353-437.534 590.688-783.78 714.582a1403 1403 0 0 1-97.47 31.346l-1.771.546c-336.537 95.818-697.143 57.066-1005.638-108.065-41.828-21.034-100.545-57.242-138.34-84.987-8.865-4.01-79.7-58.72-92.844-68.676-.229-.061-.475-.071-.687-.179-13.133-6.526-41.713-34.588-55.018-45.894-146.12-124.22-308.704-350.735-366.468-532.833-3.066-6.705-5.543-15.232-8.265-22.28-36.723-95.115-59.101-194.12-69.151-295.275-16.782-90.58-9.885-223.31-.846-314.32a1953 1953 0 0 1 11.293-73.771c19.878-92.163 41.036-183.71 81.89-269.569 34.005-77.473 61.578-129.58 107.843-202.478C588.603 933.85 636.99 874.55 672.777 831.46c48.26-55.995 83.95-91.115 138.31-140.493 59.86-50.214 103.611-84.02 169.495-125.716 18.456-13.086 39.951-23.982 59.236-35.437 57.933-34.416 116.192-58.862 177.877-85.502 80.96-32.185 179.404-58.205 265.054-73.194"/><path fill="#feefc6" d="M2041.837 2366.177c208.436-84.184 459.656-119.274 683.592-137.565a3347 3347 0 0 1 271.843-13.396l-18.426 38.654c-155.28 333.353-437.534 590.688-783.78 714.582a1403 1403 0 0 1-97.47 31.346l-1.771.546c-336.537 95.818-697.143 57.066-1005.638-108.065 16.034-5.772 44.584-9.279 62.545-13.066a6702 6702 0 0 0 119.378-27.421c152.201-35.484 318.63-74.62 465.144-126.555-47.404-11.263-97.658-20.59-143.33-37.863 54.405-13.624 130.786-23.186 188.15-32.583a2067 2067 0 0 0 216.467-46.036c-41.047-5.488-91.803-15.12-130.74-19.14 23.126-10.289 43.836-16.967 67.706-24.591 63.084-20.147 168.447-35.666 191.721-107.546-13.368-32.758-48.31-41.778-74.276-62.41 35.228 2.031 96.459 7.64 129.736 6.711-45.19-8.622-97.918-28.806-140.85-35.602"/><path fill="#fed470" d="M2267.87 2346.778c43.435-15.892 135.21-29.901 182.59-37.502a4457 4457 0 0 1 271.226-36.525c85.546-9.514 171.008-17.516 257.16-18.88-155.28 333.352-437.534 590.687-783.78 714.58a1403 1403 0 0 1-97.47 31.347c-26.834-29.618-41.244-58.546-81.698-72.241-15.157-5.131-31.508-7.57-45.982-14.609-7.526-3.659-16.286-9.346-18.294-18.109-11-48.017 229.172-129.991 252.416-173.473 1.543-2.891.926-2.733.037-5.586-17.54-15.529-90.893-31.118-118.772-41.943l-2.473-.974c38.034-13.52 84.848-24.625 124.752-38.047a1457 1457 0 0 0 219.766-96.267c-22.907-4.464-131.673-17.96-143.09-24.5-3.39-1.937-3.63-2.507-4.542-6.061 10.225-18.177 136.406-50.975 170.215-85.179-27.054-33.957-139.125-38.765-182.061-76.031"/><path fill="#239492" d="M554.23 2179.049c14.75-9.525 203.638-10.32 238.519-17.53 10.977-2.267 106.839-10.788 116.983-10.067.418 11.32.442 20.633.135 31.963 18.625 1.61 37.205 3.69 55.726 6.226 128.37 1.385 248.342 22.176 371.592 22.705-55.419 51.847-109.029 79.053-178.08 109.312-28.728 12.587-50.098 23.115-80.586 33.024 25.956 4.107 51.181 10.933 76.78 15.003 162.71 25.868 325.139 20.935 488.357 45.793 18.944 11.334 129.93 36.906 94.986 71.217-45.568 44.745-134.217 60.415-194.383 75.654 15.953 5.161 31.815 7.54 34.248 26.67-123.948 16.7-231.949 28.816-352.773 65.49 26.616.41 38.573.879 64.907 6.65 6.94 5.172 14.376 9.764 19.059 16.819-3.43 23.533-162.019 37.808-188.029 40.126-35.258 3.144-74.047.344-108.678 7.921-51.693 11.31-101.792 9.053-153.99 12.59-.229-.06-.475-.07-.687-.178-13.133-6.526-41.713-34.588-55.018-45.894-146.12-124.22-308.704-350.735-366.468-532.833 44.917 2.634 74.872 4.572 117.4 19.339"/><path fill="#8fccc5" d="M554.23 2179.049c14.75-9.525 203.638-10.32 238.519-17.53 10.977-2.267 106.839-10.788 116.983-10.067.418 11.32.442 20.633.135 31.963 18.625 1.61 37.205 3.69 55.726 6.226-34.878 2.163-72.204 7.183-107.085 9.76-86.52 6.395-221.7 9.902-304.277-20.352m921.318 262.597q10.351-.531 20.717-.495c28.425-.111 85.408 1.684 106.593 24.352 2.928 3.13 5.06 7.14 4.551 11.553-.869 7.52-8.062 14.113-13.76 18.358-62.58 46.683-297.653 72.474-378.236 75.206-37.913 1.287-74.798-.077-112.414-5.343-38.739-6.877-76.288-17.88-114.848-26.101 89.616-1.786 432.588-20.68 499.132-65.058 4.44-2.965 6.533-5.317 7.476-10.556-5.168-11.168-26.626-11.606-34.281-19.21 4.434-2.794 9.626-2.39 15.07-2.706m-676.739-35.868c91.988 4.774 182.382 18.669 276.529 21.472 101.468 3.018 200.066-7.274 299.705-6.216-12.287 3.706-22.546 7.61-34.554 12.23-17.853 6.87-37.09 13.951-55.587 18.715a731.47 731.47 0 0 1-412.086-15.622c-18.83-6.402-57.427-20.771-74.007-30.579m211.481-154.468c39.739-3.551 132.434 6.678 173.619 15.737-93.885 23.56-159.846 29.261-256.624 33.537-66.517 1.977-117.129.094-181.695-17.587 84.801-17.749 178.066-26.421 264.7-31.687"/><path fill="#feefc6" d="M2306.814 477.282a1358.5 1358.5 0 0 1 450.676 328.829c-11.799 2.415-30.727 9.844-42.98 14.194a4911 4911 0 0 1-77.527 27.206 9243 9243 0 0 0-157.808 56.288c-38.876 13.89-78.939 26.818-117.444 41.568a5437 5437 0 0 1-164.516 61.308c-27.542 9.94-64 24.255-92.088 31.755-9.498-40.582-14.76-63.013-16.667-105.212 34.675 30.184 76.294 33.917 113.904 6.03-9.781.675-39.197 2.753-46.05-4.322 1.563-8.133 42.07-29.5 53.236-39.206-58.212 15.562-94.579 11.68-130.975-38.614-1.331 61.012-3.056 117.283-21.317 175.953-1.974 6.338-6.213 20.44-7.173 26.697-16.829 4.306-99.224 34.692-109.918 44.941-20.865-6.984-30.002-13.928-45.318-29.163-.893 16.236-2.49 36.01-2.827 52.006-31.75 7.436-83.42 31.296-115.332 44.355-75.089 30.73-149.183 63.885-224.641 93.972-20.99-30.437-38.21-45.834-64.991-70.681 5.606-5.438 11.593-10.057 17.432-15.178 87.968-77.19 174.794-155.011 263.524-231.4l331.732-290.349 132.39-114.884c14.71-12.597 63.408-53.094 74.678-66.093"/><path fill="#037578" d="M2276.478 767.136c39.981-4.484 73.383 17.16 95.963 48.196 53.815-34.443 97.146-24.885 146.204 11.246-23.554-4.17-49.112-4.289-72.861-1.722-32.664 6.27-56.787 16.748-81.247 39.184-39.116-54.715-78.157-76.173-145.153-76.797 22.375-12 31.637-17.728 57.094-20.107"/><path fill="#72c1b9" d="M359.414 1842.155c48.276.546 96.55 1.482 144.809 2.803 20.774.408 62.47.145 81.87 2.534 21.249 3.56 81.2 4.144 104.318 4.659l174.286 4.1c28.196.556 65.678-.219 93.059 1.88 7.244 10.876 17.284 20.923 26.29 30.535a24919 24919 0 0 0 409.11 15.919l124.204 3.693c26.59.636 53.455.283 79.923 2.267-8.885 28.995-18.005 58.131-26.532 87.217-38.445 14.83-103.18 39.001-138.563 57.292-19.376 10.02-55.62 85.25-65.914 108.503l-2.658 6.092a4407 4407 0 0 1-226.814-8.11c-80-5.593-146.898-19.005-227.07-10.087-10.144-.721-106.006 7.8-116.983 10.067-34.88 7.21-223.768 8.005-238.518 17.53-42.529-14.767-72.484-16.705-117.401-19.34-3.066-6.704-5.543-15.231-8.265-22.28-36.723-95.114-59.101-194.12-69.151-295.274"/><path fill="#fefefe" d="M868.329 2057.78c106.717-3.15 193.001-3.986 298.159 15.744-60.955 14.41-104.107 15.269-166.486 12.284a2726 2726 0 0 1-289.369-20.262c10.037-3.919 138.135-7.268 157.696-7.766"/><path fill="#feefc6" d="M1115.802 1973.352c83.373-4.433 179.11.465 260.421 20.198a892 892 0 0 1-86.684 6.19c-68.266 2.088-137.764-2.18-205.177-12.53-19.673-3.022-38.388-3.925-58.428-7.736 30.737-3.339 59.004-4.599 89.868-6.122m-248.945-35.372c56.284-4.548 125.2 6.017 181.512 10.717-30.582 14.824-88.713 14.35-122.276 13.814-55.726-2.413-127.832-9.683-183.713-15.158 22.816-5.219 95.458-7.648 124.477-9.373m365.003 92.594c35.995-.57 59.229 3.538 93.361 11.745-24.257 5.58-45.837 8.968-70.765 9.774-26.866.316-68.468-6.29-95.674-10.519 23.025-3.5 50.612-9.363 73.077-11m-483.367-147.353c45.22 1.425 114.25 3.66 158.72 11.806-49.907 3.837-131.753-3.164-182.55-8.72l1.439-2.294c7.877-.87 14.514-.765 22.391-.792"/><path fill="#8fccc5" d="M724.662 1886.307c-7.436.027-15.225-.471-22.684-.822l-1.21-2.456-1.546.431c13.483-3.16 35.665-2.695 49.27-.239-7.877.027-14.514-.077-22.391.792z"/><path fill="#239492" d="M1266.37 1678.37c48.104-25.878 175.097-102.118 224.367-105.84 33.318-2.514 65.971 12.138 99.74 5.417 13.81-2.75 25.302-10.195 37.3-17.112 29.382-16.933 59.853-18.332 91.977-8.649 31.26 9.424 58.647 28.999 84.522 48.354l-2.069 151.517c-33.415 11.647-128.977 45.241-154.249 63.286a101 101 0 0 0-30.892 35.976c-2.395 4.798-5.175 11.63-6.927 16.664-18.54.141-37.077.212-55.617.027-198.81-2.022-397.983-8.79-596.766-9.879-27.381-2.099-64.863-1.324-93.059-1.88l-174.286-4.1c-23.119-.515-83.07-1.098-104.318-4.66 28.49-37.987 40.635-48.994 89.383-34.22 20.569-44.412 41.013-73.511 93.922-52.373 12.378-18.692 24.86-34.018 43.131-47.481 15.36 7.034 27.257 13.978 41.821 22.377-4.598 45.79 1.688 63.933 45.939 80.405l2.294-.34c4.653-7.756 8.187-14.916 15.43-20.549 63.007-48.99 127.398-106.074 200.683-138.57 43.021-19.072 106.462 3.963 147.673 21.63"/><path fill="#feefc6" d="M1482.749 371.118c126.585-21.354 284.726-29.154 412.08-9.875-5.374 6.394-10.762 17.779-15.714 25.285-36 54.57-69.415 110.767-104.228 166.055l-262.378 417.891c-34.807 54.738-74.704 122.205-111.287 174.249-30.72-15.755-51.312-21.99-85.07-30.845 36.504-145.206 66.961-287.388 100.302-433.046l44.257-192.31c4.067-17.84 26.728-105.104 22.038-117.404M980.582 565.25c18.456-13.085 39.951-23.98 59.236-35.436 57.933-34.416 116.192-58.862 177.877-85.502 3.134 23.78 2.44 60.965 2.456 85.566l-.441 141.214c.253 99.653-.23 199.308-1.452 298.954-.37 44.746.29 91.398-1.055 135.938-27.28 1.216-47.302 3.632-74.06 9.737a37096 37096 0 0 0-112.546-388.86c-11.105-37.417-22.398-74.764-33.634-112.141-4.43-14.74-12.897-35.693-16.381-49.47M559.594 982.017c35.585 22.883 71.574 52.7 105.967 77.446 40.716 29.295 80.755 58.246 121.103 88.137l94.542 69.98c12.8 9.525 35.123 25.107 46.433 35.464-17.83 19.248-35.288 43.165-45.399 67.52-143.849-52.127-287.307-88.843-430.488-136.069 34.004-77.473 61.577-129.58 107.842-202.478m251.493-291.05c10.242 14.009 28.079 49.21 37.06 65.978l67.333 126.972a14095 14095 0 0 0 86.766 163.188c17.391 32.479 37.353 68.171 53.242 101.081-23.81 12.8-38.954 22.395-61.291 38.66L747.11 913.479a2842 2842 0 0 0-45.905-50.284c-7.206-7.695-23.328-23.638-28.429-31.734 48.26-55.995 83.95-91.115 138.31-140.493"/><path fill="#72c1b9" d="M1290.64 2661.159c33.483-.637 193.605 7.503 201.101 41.184-2.348 7.557-7.712 10.876-14.322 14.494-93.763 51.302-406.578 77.08-525.572 90.455-8.865-4.01-79.7-58.72-92.844-68.676 52.198-3.538 102.297-1.28 153.99-12.59 34.631-7.578 73.42-4.778 108.678-7.922 26.01-2.318 184.599-16.593 188.029-40.126-4.683-7.055-12.119-11.647-19.06-16.819"/><path fill="#feefc6" d="M369.861 1454.064c34.345-6.018 68.616-15.99 102.816-23.005 78.912-16.192 137.542-.616 206.768 36.478 43.428-22.142 82.854-36.171 132.094-21.132 24.911 7.611 46.817 25.946 67.622 41.58-74.556-7.656-142.42 7.38-200.248 56.867-107.186-79.333-202.334-49.796-320.345-17.018a1953 1953 0 0 1 11.293-73.77"/><path fill="#72c1b9" d="M1643.656 2415.478c53.64-4.505 183.709 11.007 225.244 44.894 5.313 4.336 10.417 10.255 11.364 17.314 1.162 8.658-4.094 17.108-9.643 23.24-39.055 43.142-228.859 86.536-290.339 88.13-.593.017-1.186-.024-1.775-.037-2.433-19.13-18.295-21.509-34.248-26.67 60.166-15.239 148.815-30.909 194.383-75.654 34.945-34.311-76.042-59.883-94.986-71.217"/><path fill="#fed470" d="M1205.014 1168.057c9.12-1.24 22.664-1.374 32.114-1.34 161.069.565 299.497 116.7 332.423 273.041-49.826-30.292-94.747-42.37-153.683-36.656a211.05 211.05 0 0 0-152.935 91.182c-6.87 10.172-14.093 30.498-20.229 37.896l-3.237-.603c-80.445-16.933-140.648 8.484-202 60.358-41.805-56.342-72.498-85.259-141.986-101.845 5.256-74.512 34.594-143.182 81.526-200.808a334.04 334.04 0 0 1 228.007-121.225"/><path fill="#fefefe" d="M2105.127 1038.43c28.088-7.5 64.546-21.816 92.088-31.755a5437 5437 0 0 0 164.516-61.308c38.505-14.75 78.568-27.677 117.444-41.568a9243 9243 0 0 1 157.808-56.288 4911 4911 0 0 0 77.527-27.206c12.253-4.35 31.181-11.779 42.98-14.194 141.912 160.714 240.172 326.385 299.436 534.547 7.924 35.457 17.907 70.604 25.376 106.108 16.25 77.244 20.259 147.17 22.56 225.355l-24.945-4.363c-.29 12.671 1.266 23.567-6.574 33.19l-3.335.734c-10.626-7.57-9.272-25.09-9.11-36.72-10.788-2.029-20.195-3.514-30.599-7.116l.095 35.275c-9.346-2.517-18.891-5.222-28.284-7.466-.556-11.176-.994-22.685-1.78-33.816-23.957-4.73-51.203-9.47-74.157-17.217l.37 37.944c-10.07-2.669-20.457-5.772-30.723-7.224-.384-13.311-.741-26.003-1.762-39.277-15.498-3.74-44.584-9.895-58.727-14.545l-.368 40.231c-10.821-3.012-17.007-4.676-28.176-6.418l-3.895-40.756c-16.694-3.01-29.456-6.186-45.732-10.458-.728 9.45-1.486 18.47-1.61 27.974-13.278-4.764-21.715-7.507-35.36-10.822-.226-39.988-1.691-79.131-1.354-119.224-16.52-2.287-30.093-6.172-45.817-11.846-.307 17.584-1.014 36.993-.836 54.429-11.165-3.571-15.11-4.73-26.703-6.365-.984-18.432-2.268-37.879-2.44-56.27a401 401 0 0 1-46.966-11.968c-.11 15.92.294 36.346-.882 51.895-9.63-3.322-19.727-7.106-29.628-9.259a3905 3905 0 0 1-1.92-51.766c-15.354-3.38-30.717-6.412-45.612-11.435l-.65 41.996.077 1.523c-3.703 2.6-22.83-1.823-29.332-2.844.084-13.055.799-38.452-1.034-50.55-13.965-3.497-35.753-14.643-48.522-.674-14.37 15.724-9.848 42.141-10.182 62.137-.232 13.682.374 28.762.583 42.808-13.463-4.905-24.757-7.681-38.681-10.613.313-15.45-1.934-94.376 1.405-102.037 18.25-41.872 15.323-38.088 16.333-87.73.84-30.062 1.183-60.138 1.041-90.211 8.807-4.956 14.505-7.059 23.786-10.65-57.41-67.535-59.472-116.465-68.107-199.959 28.318 26.111 56.98 29.965 90.364 12.166-16.728-3.71-26.225-7.78-41.605-14.992 19.931-10.964 29.331-16.196 46.73-30.835-48.449 7.385-78.495 2.301-109.861-37.829 1.337 68.148-8.326 146.107-40.636 207.098-9.093 17.16-24.372 36.323-36.386 51.818l21.72 6.93c1.405 22.93.246 48.96-.444 71.982l-21.822-.553a539 539 0 0 1-2.173 44.361c-8.12-2.83-13.403-4.14-21.684-6.101l.098-45.258c-16.708-1.954-30.966-4.919-47.377-8.244.1 14.366 3.625 48.866-13.72 52.693-17.003-8.059-13.173-41.939-12.634-58.063-11.613-3.504-22.367-5.789-34.217-8.393 1.355-30.19 1.173-63.71 1.672-94.137l20.164-9.083c-35.696-52.283-40.096-66.965-57.811-127.788"/><path fill="#feefc6" d="M3056.926 1340.658c7.924 35.457 17.907 70.604 25.376 106.108 16.25 77.244 20.259 147.17 22.56 225.355l-24.945-4.363c-.29 12.671 1.266 23.567-6.574 33.19l-3.335.734c-10.626-7.57-9.272-25.09-9.11-36.72-10.788-2.029-20.195-3.514-30.599-7.116l.095 35.275c-9.346-2.517-18.891-5.222-28.284-7.466-.556-11.176-.994-22.685-1.78-33.816-23.957-4.73-51.203-9.47-74.157-17.217l.37 37.944c-10.07-2.669-20.457-5.772-30.723-7.224-.384-13.311-.741-26.003-1.762-39.277-15.498-3.74-44.584-9.895-58.727-14.545l-.368 40.231c-10.821-3.012-17.007-4.676-28.176-6.418l-3.895-40.756c-16.694-3.01-29.456-6.186-45.732-10.458-.728 9.45-1.486 18.47-1.61 27.974-13.278-4.764-21.715-7.507-35.36-10.822-.226-39.988-1.691-79.131-1.354-119.224-16.52-2.287-30.093-6.172-45.817-11.846-.307 17.584-1.014 36.993-.836 54.429-11.165-3.571-15.11-4.73-26.703-6.365-.984-18.432-2.268-37.879-2.44-56.27a401 401 0 0 1-46.966-11.968c-.11 15.92.294 36.346-.882 51.895-9.63-3.322-19.727-7.106-29.628-9.259a3905 3905 0 0 1-1.92-51.766c-15.354-3.38-30.717-6.412-45.612-11.435l-.65 41.996.077 1.523c-3.703 2.6-22.83-1.823-29.332-2.844.084-13.055.799-38.452-1.034-50.55l5.667-2.157.525-.76c14.14-8.043 524.296-83.33 563.64-86.012"/><path fill="#fefefe" d="m2487.093 1429.587 5.667-2.157 1.752 5.088c7.183 2.8 16.546 4.376 20.632 8.44 3.268 14.302-.131 26.67 2.237 40.5l.078 1.523c-3.703 2.6-22.83-1.823-29.332-2.844.084-13.055.799-38.452-1.034-50.55"/><path fill="#037578" d="M2538.479 1039.696c41.036-3.968 69.185 6.793 95.407 39.143 50.008-24.83 84.549-24.935 131.508 6.193-18.712-1.783-33.496-1.328-52.07.377-25.134 2.958-69.62 20.195-88.352 36.4-32.984-45.962-73.259-60.705-127.475-67.51 14.484-5.779 25.861-10.428 40.982-14.603"/><path fill="#fefefe" d="M2215.692 1816.67c31.663-2.614 109.008-1.219 141.901.634-115.693 26.225-214.253 78.673-330.233 96.846-25.299 25.157-43.7 47.07-72.076 71.325-30.888 26.397-58.373 44.098-90.95 67.746 3.757-57.5 2.16-69.805 43.32-112.657a2414 2414 0 0 1-65.489 14.457c-43.95 12.503-120.817 107.583-149.926 143.781 11.99-43.044 37.006-175.468 61.173-202.96 41.393-47.087 388.155-74.414 462.28-79.171m-135.268-392.576c5.414 15.218.122 289.183 1.432 325.075-13.372 1.482-25.676 4.915-38.691 8.197-.33-24.281 5.96-116.269-15.384-128.405-68.508-38.954-53.923 114.116-50.486 145.156-12.847 3.373-26.347 6.388-39.308 9.474a2238 2238 0 0 0-42.9 11.142l.048-335.044 38.071-7.81c0 12.594-2.324 32.701 8.75 40.915l3.794-1.135c10.558-12.88 8.375-29.133 7.274-44.702a1175 1175 0 0 1 56.234-11.607c-.347 13.54-2.25 29.656 7.378 39.965 15.603 1.348 13.854-32.526 13.783-42.4a881 881 0 0 0 50.005-8.821m-140.257-319.398c10.694-10.249 93.09-40.635 109.918-44.94-17.742 53.889-25.706 66.65-57.366 113.482 9.582 1.695 17.476 2.988 27.189 4.06.215 34.011 1.381 72.78.28 106.42l-23.23-.747 1.239 56.787c13.264-2.042 28.587-4.795 41.77-6.186.007-43.35-2.277-120.602 1.19-161.331 15.363-.25 30.72-.866 46.053-1.847l-.304 120.889c-.259 29.729-1.455 61.513.142 91.017l-122.367 29.16c-26.536 6.307-57.471 14.426-84.219 18.109a3510 3510 0 0 1 .998-135.685 898 898 0 0 0 37.724-1.894c.782 20.134 1.182 43.112 2.638 63.016l27.277-1.532c.117-19.862-.182-43.035 2.102-62.559l22.977-6.836c-28.125-42.485-45.254-77.187-55.86-127.474-1.28-6.075-5.276-17.948-4.259-23.392 8.922-1.79 16.5.58 25.697.764 21.057.425 42.801-10.235 60.63-20.319-24.419-1.742-36.312-2.76-60.22-8.962m320.41 622.799c248.49-.687 582.756 37.876 795.797 172.847-13.183-4.363-26.569-9.2-39.715-13.78a2220 2220 0 0 0-207.775-58.154c-128.624-28.844-253.454-45.268-383.371-64.654-76.513-11.418-141.942-26.465-220.457-34.278 17.419-1.51 37.84-1.54 55.52-1.98m162.427 144.475.866.178.427 1.577c-23.944 26.38-97.802 107.361-127.572 123.84-46.976 26.002-158.164 44.317-214.109 56.73l-1.277.181-.781-1.486c30.463-34.12 99.406-100.242 136.153-122.765 46.538-28.52 151.386-46.049 206.293-58.255"/><path fill="#feefc6" d="m1937.839 2101.181.313 1.607c-5.69 11.22-24.237 28.095-33.368 37.098-64.829 63.912-130.53 104.083-208.738 149.29.084-12.085 24.291-67.98 31.535-81.237 27.93-51.123 63.963-63.232 116.754-79.687 31.35-9.77 62.218-17.883 93.504-27.071"/><path fill="#fefefe" d="M1646.25 2078.904c.947.795 1.893 1.594 2.84 2.389-3.925 58-136.214 135.227-182.63 165.428l-1.645.01-.967-1.98c5.445-17.584 20.036-49.008 28.038-66.002 28.27-60.045 93.598-80.92 154.364-99.845"/><path fill="#feefc6" d="m2066.409 2112.498.636.398c.317 2.991-38.596 120.005-42.522 138.35-23.762 9.626-84.545 32.829-104.618 44.419l-1.253-2.069c5.892-20.926 10.053-43.044 20.211-62.44 17.53-33.476 95.674-90.583 127.546-118.658"/><path fill="#fefefe" d="M2318.093 1227.876c9.66 1.574 23.103 2.143 33.14 2.837-1.584 23.278-1.14 51.723-1.325 75.428-12.206-2.24-19.76-2.344-32.256-2.732q-.09-37.766.441-75.533"/><path fill="#feefc6" d="M2168.74 1371.183c17.132.583 19.864 12.934 25.622 26.805-6.53 17.25-7.652 26.137-27.065 30.312-16.303-9.346-18.574-17.442-25.814-34.49 9.697-11.627 13.275-15.865 27.256-22.627m-87.136-233.411c11.904 4.47 10.465 18.079-2.041 24.312-5.583-1.446-3.848-.226-7.689-3.861-.886-9.528 3.218-12.29 9.73-20.45"/></svg>