<svg xmlns="http://www.w3.org/2000/svg" width="1024" height="1024" viewBox="128 128 768 768"><path fill="#efe8de" d="M0 0h1024v1024H0z"/><path fill="#036f73" d="M504.37 169.234q.727-.029 1.455-.048C691.858 164.23 853.076 305.959 857.403 494.7a303.62 303.62 0 0 1-84.117 216.693c-64.671 67.549-150.453 101.292-243.202 103.284-18.463-.003-32.907-.455-51.446-2.792a359.1 359.1 0 0 1-201.51-95.675 316.3 316.3 0 0 1-100.45-221.852c-2.483-83.219 30.578-160.804 87.243-220.934a310.4 310.4 0 0 1 35.501-31.781c59.764-46.638 129.517-70.173 204.948-72.409"/><path fill="#72bdb6" d="M499.773 180.713q.856-.044 1.713-.079a333.3 333.3 0 0 1 240.277 87.616 311.84 311.84 0 0 1 101.302 215.626 288.8 288.8 0 0 1-77.194 208.362c-60.257 65.058-141.179 99.38-229.246 102.743a344.27 344.27 0 0 1-242.098-88.236C171.32 595.477 155.383 415.174 265.855 289.199c59.976-68.392 143.956-104.116 233.918-108.486"/><path fill="#036f73" d="m498.005 189.711.711-.07c84.04-4.581 168.094 24.979 231.146 80.225 60.116 52.673 98.776 127.573 103.444 207.44a276.87 276.87 0 0 1-69.295 202.16 312.8 312.8 0 0 1-172.578 99.48c-18.241 3.683-35.418 5.373-53.915 6.454-17.905.288-34.306-.05-52.194-2.198a337.5 337.5 0 0 1-179.15-79.386c-60.074-52.108-98.712-122.513-104.517-202.101C190.58 349.842 306.54 220.322 452.913 194.871c15.295-2.659 29.615-4.112 45.092-5.16"/><path fill="#efe8de" d="M464.057 200.668c34.074-4.974 67.574-5.612 101.678.094 32.31 5.562 65.32 15.521 94.346 30.978 38.224 19.076 66.506 43.162 94.982 74.342-14.731 8.068-92.763 28.687-97.033 33.598-3.385-1.622-6.418-3.904-9.493-6.068-.073 2.23-.075 5.639-.355 7.752-5.05.815-10.151 3.211-14.965 4.603-11.332 3.276-26.11 9.909-37.126 12.896-3.192-9.798-4.776-16.671-5.13-27.042 5.698 2.855 20.974 7.735 23.957-.555-2.263-.909-4.624-.051-7.207-1.117l-.208-.749c4.839-3.861 6.305-3.334 10.936-8.424-15.171 3.178-17.238.207-29.945-7.79-.774 19.087-1.964 35.766-9.564 53.777-1.658-3.701-8.665-3.025-7.27 2.328-2.416-.99-4.087-.985-6.562-1.611-6.646-1.679-9.77-3.15-15.18-7.247-.315 6.606-.339 12.492-1.522 19.005-1.65 6.578-2.979 11.514-5.784 17.834-1.249 2.815-5.763 7.946-5.717 9.678.957.408 1.091.433 2.114.643 4.194 5.08-1.91 25.535 4.204 35.702q-.327 23.411-.216 46.826c.019 5.796-.274 18.725.3 23.926-8.248 2.645-34.715 11.341-41.002 15.81-3.342 7.987-9.649 29.008-11.304 37.677-7.346 2.259-29.171 10.96-35.064 14.817-4.468 7.95-13.019 27.33-16.702 36.142-7.118 3.22-16.366 7.038-22.028 12.365 11.008 3.96 19.926 3.262 31.465 3.416q20.015.262 40.032.303a755 755 0 0 1 51.835 1.779 313 313 0 0 1 33.617 3.767c5.146.869 14.381 3.087 19.052 3.531q13.998.393 28.001.636c-8.594-2.07-26.968-7.167-34.978-8.198 12.263-4.692 25.198-11.419 38.01-14.423 56.635-13.281 120.206-18.783 178.147-20.976-1.452 2.541-2.748 5.238-4.062 7.859-37.689 80.461-119.364 136.272-204.728 154.897-63.14 13.782-136.443 7.591-195.41-19.435-10.775-4.731-19.21-8.868-29.637-14.394-7.695-4.423-15.138-9.239-22.627-14.002-5.774-3.575-15.355-10.85-20.801-15.13a307.8 307.8 0 0 1-71.142-77.846c-4.416-6.859-10.215-16.181-13.453-23.715-11.669-24.461-19.817-42.891-24.22-70.194-5.291-20.334-5.644-50.71-4.325-71.491.366-4.369.904-8.903 1.358-13.279 4.035-24.372 6.703-35.893 15.051-59.037 2.802-8.168 14.56-33.472 19.525-40.457 7.506-12.935 12.668-20.356 21.898-32.187 9.396-12.072 18.266-21.403 29.313-32.078a276 276 0 0 1 34.289-27.622c16.224-12.306 40.03-23.847 58.611-31.877 24.182-10.296 46.291-15.772 72.039-20.037"/><path fill="#fcebc3" d="M586.221 636.092c12.263-4.692 25.198-11.419 38.01-14.423 56.635-13.281 120.206-18.783 178.147-20.976-1.452 2.541-2.748 5.238-4.062 7.859-37.689 80.461-119.364 136.272-204.728 154.897-63.14 13.782-136.443 7.591-195.41-19.435 14.212-4.448 28.24-5.786 42.233-9.521 27.413-7.316 58.213-13.117 84.667-22.938-7.521-1.825-24.623-4.487-30.342-6.614l-.083-.543c1.842-1.311 10.632-3.018 13.09-3.438 22.781-3.889 46.101-7.29 68.332-13.694-7.711-.513-16.374-2.307-24.38-3.216 12.989-9.072 37.416-9.086 50.199-21.09 11.221-10.537-3.746-13.668-8.696-19.306q13.998.393 28.001.636c-8.594-2.07-26.968-7.167-34.978-8.198"/><path fill="#f5ca76" d="M667.254 673.209c-8.29-2.887-19.967-3.225-28.437-5.804-.671-.204-.559-.356-.804-1.198 2.993-4.063 32.413-11.063 34.097-18.424-2.644-6.314-30.392-10.415-36.361-16.408 2.879-2.551 18.746-4.844 23.529-5.741 30.685-5.753 61.446-9.826 92.497-13.004 15.224-1.558 31.269-3.719 46.541-4.078-37.689 80.461-119.364 136.272-204.728 154.897-4.506-8.058-23.965-10.658-20.442-19.569 3.442-8.703 46.636-27.256 48.4-33.418-2.293-3.619-18.605-7.622-24.11-9.749 6.64-2.853 19.131-6.272 26.584-8.876 15.78-5.511 28.348-11.084 43.234-18.628"/><path fill="#1a8f8d" d="M255.341 601.938c2.487-1.229 22.716-2.547 26.732-2.932a454 454 0 0 0 27.223-3.401c8.641-1.355 23.515-4.168 31.96-3.594-3.903 1.526-13.29.767-14.669 2.41 1.441 3.481-1.081 5.53 1.052 7.954 1.78.252 1.302-.029 2.495-.22 5.119-.821 15.513-.696 20.613-.126 25.626-.243 53.953 4.159 78.471 3.839-8.872 11.549-41.805 26.707-56.221 31.735 10.248 2.8 20.85 3.503 31.399 4.369 30.227 2.481 60.704 1.656 90.837 5.245 2.258.269 4.777.654 7.029.788 5.745 3.472 22.877 6.189 23.228 11.602.678 10.475-38.338 18.847-43.696 19.951 2.579.815 5.99 1.579 7.415 3.919-.079 1.532.252.96-.742 1.896-23.995 3.717-47.372 6.345-70.621 13.79l10.474.728c2.678 1.172 4.154 1.869 6.718 3.345-1.197 1.68-1.187 1.581-3.016 2.63-17.776 4.009-32.608 6.414-50.896 6.35-5.222-.019-11.636 1.988-16.974 2.307-5.966.615-12.441.511-18.238 1.095-5.774-3.575-15.355-10.85-20.801-15.13a307.8 307.8 0 0 1-71.142-77.846c-4.416-6.859-10.215-16.181-13.453-23.715 4.174.139 11.131 1.134 14.823 3.011"/><path fill="#8ecdc3" d="M255.341 601.938c2.487-1.229 22.716-2.547 26.732-2.932a454 454 0 0 0 27.223-3.401c8.641-1.355 23.515-4.168 31.96-3.594-3.903 1.526-13.29.767-14.669 2.41 1.441 3.481-1.081 5.53 1.052 7.954 1.78.252 1.302-.029 2.495-.22 5.119-.821 15.513-.696 20.613-.126-4.369.804-13.355.418-18.262.891-21.296 2.052-57.387 6.168-77.144-.982m205.676 52.691c6.558-.794 30.996-.762 33.293 6.246-.328 1.97-.991 3.107-2.504 4.36-11.376 9.429-62.724 15.867-78.155 16.976-8.66.623-17.91.885-26.53-.125-8.461-.702-18.271-3.074-26.466-5.149l.572-.032c26.516-1.538 54.116-3.216 80.38-7.125 4.307-.641 29.667-5.596 28.65-10.644-2.227-1.703-6.326-3.031-9.24-4.507m-152.065-4.547c2.602-.296 16.48 1.145 19.792 1.452a516 516 0 0 0 34.875 2.385c27.972.703 51.279-2.157 78.918-3.757l-8.033 3.333a108 108 0 0 1-11.876 4.473c-32.403 9.853-83.492 8.25-113.676-7.886m44.907-34.365c11.61-1.466 30.367 1.16 42.08 2.179-19.501 5.677-40.918 7.278-61.108 8.498-14.616.244-27.557.724-41.936-2.644 16.308-4.658 43.502-6.914 60.964-8.033"/><path fill="#fcebc3" d="M660.081 231.74c38.224 19.076 66.506 43.162 94.982 74.342-14.731 8.068-92.763 28.687-97.033 33.598-3.385-1.622-6.418-3.904-9.493-6.068-.073 2.23-.075 5.639-.355 7.752-5.05.815-10.151 3.211-14.965 4.603-11.332 3.276-26.11 9.909-37.126 12.896-3.192-9.798-4.776-16.671-5.13-27.042 5.698 2.855 20.974 7.735 23.957-.555-2.263-.909-4.624-.051-7.207-1.117l-.208-.749c4.839-3.861 6.305-3.334 10.936-8.424-15.171 3.178-17.238.207-29.945-7.79-.774 19.087-1.964 35.766-9.564 53.777-1.658-3.701-8.665-3.025-7.27 2.328-2.416-.99-4.087-.985-6.562-1.611-6.646-1.679-9.77-3.15-15.18-7.247-.315 6.606-.339 12.492-1.522 19.005-7.286.463-72.172 26.043-81.771 30.19-5-7.306-9.128-11.893-14.637-18.605 10.332-6.932 26.151-20.026 36.486-28.021l72.497-55.714 64.92-49.301c7.575-5.691 28.59-20.541 34.19-26.247"/><path fill="#036f73" d="M631.665 289.585c11.131-.999 18.115 2.754 24.071 12.144 12.336-9.06 22.414-5.852 33.629 2.476-5.126-1.007-8.917-1.246-14.096-1.313-9.737-.01-16.747 5.636-23.709 11.689-5.749-13.347-14.559-20.696-29.478-21.259 3.999-2.231 5.309-2.693 9.583-3.737"/><defs><linearGradient id="a" x1="327.088" x2="358.489" y1="621.216" y2="505.455" gradientUnits="userSpaceOnUse"><stop offset="0" stop-color="#5cbcb2"/><stop offset="1" stop-color="#a2d3c6"/></linearGradient></defs><path fill="url(#a)" d="M216.298 528.733c5.385.05 33.9-.828 36.979.24 5.364 2.838 58.754.033 68.856.999 3.543.339 11.015-.613 14.767.347 1.902 2.156 3.379 3.718 4.912 6.187a9824 9824 0 0 0 101.99 1.808c13.213.195 29.047-.289 41.847.369-1.852 6.572-3.757 13.903-5.833 20.35l-.596.307c-29.969 15.071-27.872 2.016-43.2 36.023-17.649.154-35.297-.3-52.914-1.362-15.327-.902-26.197-2.02-41.85-1.99-8.445-.574-23.319 2.239-31.96 3.594a454 454 0 0 1-27.223 3.401c-4.016.385-24.245 1.703-26.732 2.932-3.692-1.877-10.649-2.872-14.823-3.011-11.669-24.461-19.817-42.891-24.22-70.194"/><path fill="#cbdfcd" d="M325.959 573.774c15.744-.533 49.716-1.739 63.838 2.217-8.554 3.504-21.595 3.024-30.993 3.126-21.263-.106-44.427-.406-65.655-2.773 11.228-2.389 21.438-2.31 32.81-2.57"/><path fill="#fcebc3" d="M378.342 554.218c12.047-.735 45.896-.14 56.947 3.782l-19.517 1.079c-12.915 1.219-45.998-.969-58.563-3.397 6.911-1.035 14.134-1.19 21.133-1.464m-50.693-6.996c10.591-.507 23.482 1.211 34.522 1.634-12.167 3.901-20.176 3.598-32.547 2.813-9.278-.637-27.319-.901-35.462-2.277 12.408-1.232 21.066-1.813 33.487-2.17m73.467 19.399c8.507.146 14.129.042 22.512 1.75-4.438 1.191-6.075 1.508-10.719 2.071-9.434.234-15.399.116-24.634-1.694 3.986-1.014 8.211-.972 12.841-2.127"/><path fill="#cbdfcd" d="M291.03 535.493c8.598.006 29.244-.295 37.079 2.535a484 484 0 0 1-31.069-.711c-3.954-.217-8.217-.837-11.909-1.009 1.231-.745 4.298-.717 5.899-.815"/><path fill="#8ecdc3" d="M285.131 536.308c-2.212.045-3.124.046-5.304-.217l.352-.467c4.163-.81 6.529-.93 10.851-.131-1.601.098-4.668.07-5.899.815"/><path fill="#fcebc3" d="M464.057 200.668c34.074-4.974 67.574-5.612 101.678.094-1.772 4.492-21.482 29.057-26.05 35.172l-69.343 92.841c-10.403 13.916-26.324 33.843-35.624 47.961-8.368-5.838-14.58-8.59-24.266-11.522 11.974-39.026 24.963-76.916 37.667-115.636a2646 2646 0 0 1 9.904-29.678c1.875-5.569 4.782-13.651 6.034-19.232"/><path fill="#1a8f8d" d="M404.015 490.845c14.022-6.599 33.567-19.623 48.16-23.718 10.033-2.816 24.738 4.538 35.476-4.109 13.061-7.912 30.827 2.018 43.228 8.221-.226 10.595-.427 22.823-.167 33.429-14.693 6.397-36.99 10.064-43.16 26.068l-98.92-.232-33.917-.048c-5.215-.012-12.724.188-17.815-.137-3.752-.96-11.224-.008-14.767-.347-10.102-.966-63.492 1.839-68.856-.999 6.964-8.971 7.6-9.874 18.75-6.913 1.959-9.304 8.542-17.006 18.349-11.432 2.479-4.353 3.822-6.512 8.349-9.167 4.287 1.607 6.223 2.564 10.198 4.895.449 10.804 2.637 13.334 13.222 16.331.224-.813.913-3.311 1.528-3.837 12.296-10.508 24.747-20.49 38.444-29.119 16.847-10.613 24.759-2.103 41.898 1.114"/><path fill="#f5ca76" d="M295.271 448.148c3.491-23.71 13.381-42.555 32.839-57.014a85.5 85.5 0 0 1 64.431-16.068c23.153 3.431 44.295 17.032 58.116 35.825 6.825 9.281 9.757 17.308 14.038 27.833-25.35-16.849-61.454-8.109-72.609 20.997-14.951-3.586-25.79-1.942-38.985 6.165a90.6 90.6 0 0 0-13.538 10.228c-11.413-15.761-23.341-26.084-43.693-24.932-.564-.971-.48-1.824-.599-3.034"/><path fill="#fcebc3" d="M333.407 252.582c16.224-12.306 40.03-23.847 58.611-31.877-.429 26.303-2.861 52.611-3.957 78.892-.837 20.079-3.357 40.708-3.517 60.754-7.755-.055-14.433.241-22.106 1.788-4.501-19.633-10.839-40.707-15.573-60.628-2.731-11.494-9.298-39.234-13.458-48.929m-34.289 27.622c2.11 5.207 4.481 10.294 6.784 15.417 10.871 24.178 21.238 49.033 33.171 72.705-6.953 3.462-10.832 5.221-16.729 10.183l-31.15-39.403c-6.073-7.759-14.862-19.633-21.389-26.824 9.396-12.072 18.266-21.403 29.313-32.078m-51.211 64.265c3.279 2.108 6.097 4.917 9.026 7.482 15.905 13.928 31.363 28.363 47.123 42.451-4.205 5.435-8.508 11.026-11.147 17.431a691 691 0 0 0-41.647-17.798c-4.027-1.592-20.5-7.662-22.88-9.109 2.802-8.168 14.56-33.472 19.525-40.457"/><path fill="#72bdb6" d="M438.028 700.326c7.06.558 35.215.927 36.039 8.747-5.451 10.134-71.048 16.317-84.937 18.648-4.185.702-17.928.643-20.589 1.899-7.695-4.423-15.138-9.239-22.627-14.002 5.797-.584 12.272-.48 18.238-1.095 5.338-.319 11.752-2.326 16.974-2.307 18.288.064 33.12-2.341 50.896-6.35 1.829-1.049 1.819-.95 3.016-2.63l.33-.686c1.312-.745 1.153-.445 3.002-.206z"/><path fill="#cbdfcd" d="m435.038 703.236.33-.686c1.312-.745 1.153-.445 3.002-.206-.763 3.165-3.073 4.994-6.348 3.522 1.829-1.049 1.819-.95 3.016-2.63"/><path fill="#fcebc3" d="m213.331 443.963.691-.162c4.752-1.139 8.583-2.946 13.101-4.336 9.636-2.964 19.267-2.908 28.48 1.404 3.076 1.44 5.941 3.28 8.662 4.568 10.453-2.444 21.119-4.579 30.477 2.325l.529.386c.119 1.21.035 2.063.599 3.034l-.79.119c-2.272.327-4.645.058-6.98.466-10.445 1.823-17.67 4.612-25.122 12.051-11.737-17.198-35.228-9.161-51.005-6.576.366-4.369.904-8.903 1.358-13.279"/><path fill="#72bdb6" d="M502.262 648.005c11.532-.415 39.584 1.694 49.323 9.999 1.019.869 1.739 2.234 1.9 3.572.237 1.975-1.425 4.489-2.852 5.629-10.827 8.654-48.758 17.152-62.166 18.168.994-.936.663-.364.742-1.896-1.425-2.34-4.836-3.104-7.415-3.919 5.358-1.104 44.374-9.476 43.696-19.951-.351-5.413-17.483-8.13-23.228-11.602"/><path fill="#8ecdc3" d="M428.32 699.891c2.322 0 7.565-.061 9.708.435l.342 2.018c-1.849-.239-1.69-.539-3.002.206l-.33.686c-2.564-1.476-4.04-2.173-6.718-3.345"/><path fill="#efe8de" d="M755.063 306.082c31.454 38.444 43.425 63.301 58.872 109.467 7.127 27.313 9.769 44.038 9.785 72.182-2.342-.512-8.394-2.178-10.397-1.33-1.476-1.085-1.641-.737-3.82-.921-2.417-.258-4.734-.751-7.12-1.209l-.139 6.36-5.72-1.356-.156-6.587c-5.272-.277-12.691-1.96-17.95-3.126l.04 7.177c-1.918-.499-4.202-.843-6.18-1.194l-.332-8.805c-3.809-.355-10.578-2.113-14.493-3.061l.051 8.604c-1.755-.379-3.695-.701-5.475-1.036l-.509-8.638c-3.533-.602-6.998-1.206-10.553-1.673l-.641.775c.209 1.358.4 1.912.165 3.262-1.513.376-5.15-.765-7.238-1.136.041-8.273-.158-16.581-.103-24.919a397 397 0 0 1-11.317-2.851l-.142 11.332a197 197 0 0 0-5.605-1.048l.15-12.159c-3.848-.706-7.616-1.922-11.423-2.472l-.601.671-.729-1.431c-1.867-1.252-2.799-1.133-5.129-1.38a704 704 0 0 0-9.952-2.328c-.335-.11-.97-.157-1.35-.204-1.048 1.673-.578 7.401-.507 9.645l-5.82-.783c.127-3.219.049-6.78.044-10.03-15.939-7.607-12.502 11.49-12.511 21.479-3.424-.947-6.177-1.3-9.687-1.814.378-7.192.515-13.64.074-20.846.669-1.346 2.97-5.932 3.15-7.042 1.527-9.376.772-22.225.776-31.868l4.935-1.851c-11.174-12.755-14.417-26.227-15.671-42.595 4.587 2.772 16.293 6.352 19.561.458-.582-1.415-3.028-.433-5.612-1.931.239-1.166 6.665-5.877 9.07-8.712-7.639 1.561-9.971 1.574-16.824-1.478 4.27-4.911 82.302-25.53 97.033-33.598"/><path fill="#fcebc3" d="M813.935 415.549c7.127 27.313 9.769 44.038 9.785 72.182-2.342-.512-8.394-2.178-10.397-1.33-1.476-1.085-1.641-.737-3.82-.921-2.417-.258-4.734-.751-7.12-1.209l-.139 6.36-5.72-1.356-.156-6.587c-5.272-.277-12.691-1.96-17.95-3.126l.04 7.177c-1.918-.499-4.202-.843-6.18-1.194l-.332-8.805c-3.809-.355-10.578-2.113-14.493-3.061l.051 8.604c-1.755-.379-3.695-.701-5.475-1.036l-.509-8.638c-3.533-.602-6.998-1.206-10.553-1.673l-.641.775c.209 1.358.4 1.912.165 3.262-1.513.376-5.15-.765-7.238-1.136.041-8.273-.158-16.581-.103-24.919a397 397 0 0 1-11.317-2.851l-.142 11.332a197 197 0 0 0-5.605-1.048l.15-12.159c-3.848-.706-7.616-1.922-11.423-2.472l-.601.671-.729-1.431c-1.867-1.252-2.799-1.133-5.129-1.38a704 704 0 0 0-9.952-2.328c24.339-6.501 62.009-12.247 87.701-15.979l23.727-3.354c3.912-.549 10.597-1.259 14.105-2.37"/><path fill="#036f73" d="M697.363 350.143a17.6 17.6 0 0 1 6.9.685c5.573 1.673 9.439 4.857 12.255 9.863 11.095-5.808 18.89-6.015 29.695 1.058a94 94 0 0 0-13.694-.11c-8.797 1.898-13.138 4.851-19.925 10.419-2.561-7.385-7.878-15.365-15.913-17.362-2.368-.588-6.388-.585-7.881-1.957 1.451-1.673 6.265-2.205 8.563-2.596"/><path fill="#efe8de" d="M622.316 516.715c10.43-.504 20.327-.236 30.769.051-8.597 2.322-15.333 3.587-24.12 6.805-17.608 6.448-31.005 12.167-49.753 14.761-12.425 13.278-20.992 20.588-36.486 30.072 2.827-13.79.06-12.499 10.494-24.695a383 383 0 0 0-14.614 3.386c-10.99 3.02-24.69 22.642-33.295 31.618 3.213-10.46 7.388-36.807 13.868-44.607 7.915-9.529 87.9-16.377 103.137-17.391m-34.036-82.076 1.429-.045c1.119 2.004.682 60.035.678 68.131a333 333 0 0 1-8.721 1.998c.055-4.544 1.344-25.67-2.742-27.629-16.325-7.832-12.347 22.738-12.196 31.221l-4.9 1.102a547 547 0 0 0-12.249 2.955c.647-8.892.339-19.88.312-28.888l.054-41.662c2.501-.279 4.983-.73 7.466-1.145q-.012 2.145.04 4.291c.06 2.093.117 2.838 1.728 4.365l.876-.156c2.546-3.129 1.913-5.738 1.81-9.885 3.618-.496 8.276-1.571 11.932-2.306l.011 2.771c-.004 2.54-.322 4.058 1.834 5.821l.953-.144c2.518-2.898 1.936-5.087 1.869-9.012 3.171-.482 6.635-1.195 9.816-1.783m7.811-75.776c11.016-2.987 25.794-9.62 37.126-12.896 4.814-1.392 9.915-3.788 14.965-4.603-.587 13.24-2.161 23.509-7.384 35.951-1.259 2.998-8.008 12.365-7.73 13.641 1.864.519 2.553.318 3.421 1.535.321 5.232.118 10.384-.006 15.621-2.48-.232-2.653-.663-4.526.255-.946 1.526-.592 6.024-.651 8.161-1.669-.316-3.44-.689-5.115-.881l.266-10c-3.85-.424-7.083-.926-10.903-1.593.027 3.23.493 7.592-.486 10.374-1.353 1.353-.545.936-2.581 1.139-4.178-1.987-2.297-8.309-2.434-12.615l-6.683-1.036c-.031-3.86-.338-16.216.4-19.434 1.296-.766 1.63-.763 3.073-1.125l.265-.728c-5.416-8.653-7.687-12.012-11.017-21.766m-24.431 10.428c-1.395-5.353 5.612-6.029 7.27-2.328-2.756 6.216-4.436 9.955-8.36 15.528l5.948.646q.094 10.728.05 21.455l-5.487.214.296 11.567q4.486-.432 8.987-.661l.178-33.818 9.993-.358-.004 44.612c-15.613 2.839-29.641 6.371-44.976 10.118.631-9.856.206-18.993.296-28.795l8.664-.099c.092 4.171.129 8.476.299 12.632l6.333-.108c.181-4.577-.759-10.239 1.283-13.268 1.385-.853 2.556-.859 4.176-1.083-7.342-12.688-9.907-17.827-12.769-32.67 5.719 1.323 13.085-.012 17.823-3.584m54.9 129.555c-.977.017-6.105-.347-6.691-.841 5.158-.75 18.998-.52 24.285-.081 45.76-.062 126.476 11.608 164.709 38.741-45.569-17.73-96.692-24.016-144.898-31.611-9.305-1.466-29.094-5.685-37.405-6.208"/><path fill="#8ecdc3" d="M626.56 498.846c-.977.017-6.105-.347-6.691-.841 5.158-.75 18.998-.52 24.285-.081-3.898.237-15.326-.052-17.806.46z"/><path fill="#efe8de" d="M667.98 528.677c-.659 2.147-25.597 25.723-28.709 27.288-12.827 6.452-34.165 9.3-48.307 13.055l.295-.95c5.605-5.154 25.426-23.699 31.13-26.783 8.626-4.664 35.238-9.933 45.591-12.61"/><path fill="#fcebc3" d="M558.994 579.68c.253.271.086.05.078.828-12.857 15.637-34.307 29.756-51.409 40.08-.211-.178-.061-.014-.49-.789 6.255-14.556 7.782-26.77 24.5-32.269 9.031-2.97 18.165-5.391 27.321-7.85m29.775 1.735c.433.412.241.13.377.951-3.474 7.557-7.422 22.021-10.081 30.493-6.833 3.514-14.239 5.493-21.348 8.855-.877-1.819 2.834-14.309 3.578-17.167 5.759-6.217 20.742-18.052 27.474-23.132"/><path fill="#efe8de" d="m494.991 575.082.383.372c.856 10.575-30.833 30.766-39.274 36.546l-.334-.362c.459-2.583 5.056-12.177 6.366-14.875 6.717-13.83 19.075-17.314 32.859-21.681m146.746-182.853c1.649.265 5.063.223 6.86.254l-.07 16.552c-2.267-.341-4.719-.442-7.02-.595.007-4.186-.264-12.461.23-16.211"/><path fill="#fcebc3" d="M698.354 439.58c2.33.247 3.262.128 5.129 1.38l.729 1.431c.322 2.987.173 6.305.135 9.336-1.912-.201-3.983-.564-5.898-.856zm111.149 45.9c2.179.184 2.344-.164 3.82.921.222 2.713.916 4.652-1.085 6.682-3.545-.423-2.812-4.962-2.735-7.603"/></svg>