<svg xmlns="http://www.w3.org/2000/svg" xml:space="preserve" id="Слой_1" x="0" y="0" viewBox="0 0 1000 1000"><style>.st1{fill:#fff}</style><path d="M.5 480.4c0-226.2 0-339.2 70.4-409.6C141.2.4 254.3.4 480.4.4h40.1c226.2 0 339.2 0 409.6 70.4s70.4 183.4 70.4 409.6v40.1c0 226.2 0 339.2-70.4 409.6s-183.4 70.4-409.6 70.4h-40.1c-226.2 0-339.2 0-409.6-70.4C.5 859.7.5 746.6.5 520.4z" style="fill:#f70"/><path d="M500.5 497.7c49 0 93-19.6 125.1-51.6 32-32 51.6-76.6 51.6-125.1s-19.6-93-51.6-125.1c-32-32-76.1-51.6-125.1-51.6s-93 19.6-125.1 51.6c-32 32-51.6 76.1-51.6 125.1s19.6 93 51.6 125.1c32 31.6 76.1 51.6 125.1 51.6M443.9 264c14.7-14.7 34.7-23.6 56.5-23.6s42.3 8.9 56.5 23.6c14.7 14.7 23.6 34.7 23.6 56.5s-8.9 42.3-23.6 56.5c-14.7 14.7-34.7 23.6-56.5 23.6s-42.3-8.9-56.5-23.6c-14.7-14.7-23.6-34.7-23.6-56.5s8.9-41.8 23.6-56.5" class="st1"/><path d="m738.2 569-52.1-70.8c-3.1-4-8.4-4.5-12.5-1.3-49 41.9-109.1 68.6-173.6 68.6-64.6 0-124.7-27.2-173.6-68.6-3.6-3.1-9.4-2.7-12.5 1.3L262.2 569c-2.7 3.6-1.8 8.4 1.3 11.1 43.6 35.6 94.4 59.2 147.4 71.7L301.4 844.6c-2.7 5.4 1.3 12 7.6 12h107.3c3.1 0 6.2-1.8 7.6-4.9l76.6-171 76.6 171c1.3 3.1 4.5 4.9 7.6 4.9H692c6.2 0 10.2-6.7 7.1-12L589.5 651.8c53-12.5 103.3-36.1 146.9-71.7 3.6-2.7 4-7.6 1.8-11.1" class="st1"/></svg>