<?xml version="1.0" encoding="utf-8"?>
<!-- Generator: Adobe Illustrator 28.0.0, SVG Export Plug-In . SVG Version: 6.00 Build 0)  -->
<svg version="1.1" id="Слой_1" xmlns="http://www.w3.org/2000/svg" xmlns:xlink="http://www.w3.org/1999/xlink" x="0px" y="0px"
	 viewBox="0 0 1000 1000" style="enable-background:new 0 0 1000 1000;" xml:space="preserve">
<style type="text/css">
	.st0{fill:#FF7700;}
	.st1{fill:#FFFFFF;}
</style>
<path class="st0" d="M0.5,480.4c0-226.2,0-339.2,70.4-409.6C141.2,0.4,254.3,0.4,480.4,0.4h40.1c226.2,0,339.2,0,409.6,70.4
	c70.4,70.4,70.4,183.4,70.4,409.6v40.1c0,226.2,0,339.2-70.4,409.6c-70.4,70.4-183.4,70.4-409.6,70.4h-40.1
	c-226.2,0-339.2,0-409.6-70.4C0.5,859.7,0.5,746.6,0.5,520.4V480.4z"/>
<path class="st1" d="M500.5,497.7c49,0,93-19.6,125.1-51.6c32-32,51.6-76.6,51.6-125.1s-19.6-93-51.6-125.1
	c-32-32-76.1-51.6-125.1-51.6s-93,19.6-125.1,51.6c-32,32-51.6,76.1-51.6,125.1s19.6,93,51.6,125.1
	C407.4,477.7,451.5,497.7,500.5,497.7z M443.9,264c14.7-14.7,34.7-23.6,56.5-23.6c21.8,0,42.3,8.9,56.5,23.6
	c14.7,14.7,23.6,34.7,23.6,56.5c0,21.8-8.9,42.3-23.6,56.5c-14.7,14.7-34.7,23.6-56.5,23.6c-21.8,0-42.3-8.9-56.5-23.6
	c-14.7-14.7-23.6-34.7-23.6-56.5C420.3,298.7,429.2,278.7,443.9,264z"/>
<path class="st1" d="M738.2,569l-52.1-70.8c-3.1-4-8.4-4.5-12.5-1.3c-49,41.9-109.1,68.6-173.6,68.6c-64.6,0-124.7-27.2-173.6-68.6
	c-3.6-3.1-9.4-2.7-12.5,1.3L262.2,569c-2.7,3.6-1.8,8.4,1.3,11.1c43.6,35.6,94.4,59.2,147.4,71.7L301.4,844.6
	c-2.7,5.4,1.3,12,7.6,12h107.3c3.1,0,6.2-1.8,7.6-4.9l76.6-171l76.6,171c1.3,3.1,4.5,4.9,7.6,4.9h107.3c6.2,0,10.2-6.7,7.1-12
	L589.5,651.8c53-12.5,103.3-36.1,146.9-71.7C740,577.4,740.4,572.5,738.2,569z"/>
</svg>
