<svg xmlns="http://www.w3.org/2000/svg" xml:space="preserve" viewBox="0 0 1000 1000"><path d="M479.6 1000.4h41.7c226.7 0 339.6 0 409.6-70 69.6-70 69.6-183.3 69.6-409.2v-42.5c0-225 0-338.3-69.6-408.3-70-70-183.3-70-409.6-70h-41.7C252.9.4 140 .4 70 70.4.5 140.4.5 253.8.5 479.6v42.5c0 225 0 338.3 70 408.3s183.3 70 409.1 70" style="fill:#07f"/><path d="M532.6 720.8c-227.9 0-357.9-156.2-363.3-416.2h114.2c3.8 190.8 87.9 271.7 154.6 288.3V304.6h107.5v164.6c65.8-7.1 135-82.1 158.3-164.6h107.5c-17.8 86.5-70.8 161.7-146.3 207.5C749.4 554 811.7 630 836.3 720.8H718C695.7 641 627.7 582.4 545.5 572v148.8z" style="fill:#fff"/></svg>