<svg xmlns="http://www.w3.org/2000/svg" xml:space="preserve" id="Слой_1" x="0" y="0" viewBox="0 0 991.1 1000"><style>.st0{fill:#25d366}</style><path d="M990.8 477.5c-4.7-127.7-58.5-248.7-150.2-337.7S626.3.8 498.5 0H496c-86-.1-170.6 22.3-245.4 64.8-74.8 42.6-137.2 103.8-181.2 177.8C25.5 316.6 1.6 400.8 0 486.8c-1.5 86 19.4 171 60.7 246.5L16.9 995.7c-.1.5 0 1.1.1 1.6.2.5.4 1 .8 1.4s.8.7 1.3 1c.5.2 1 .3 1.6.3h.8l259.4-57.7c67 32.2 140.4 48.9 214.8 48.9h14.2c65.4-1.9 129.8-16.7 189.4-43.5 59.6-26.9 113.4-65.3 158.1-113.1s79.5-103.9 102.4-165.2 33.4-126.5 31-191.9M507.3 905h-11.7c-65.7.1-130.5-15.6-188.8-45.8l-13.3-6.9-175.9 41.6 32.5-178-7.5-12.8c-36-61.4-55.4-131.1-56.3-202.3s16.8-141.3 51.3-203.6S222.2 182.7 283 145.7s130.2-57.5 201.3-59.5h11.9c107.4.3 210.4 42.8 286.8 118.3s120 178 121.5 285.4S865.3 701 791.1 778.7s-176 123-283.3 126.4z" class="st0"/><path d="M323.3 256.3c-6.1.1-12.2 1.5-17.8 4s-10.6 6.1-14.8 10.6c-11.8 12.1-44.8 41.3-46.7 102.5s40.9 121.8 46.8 130.3c6 8.5 81.8 140.7 206.6 194.4 73.4 31.6 105.5 37 126.4 37 8.6 0 15.1-.9 21.9-1.3 22.9-1.4 74.5-27.8 85.7-56.6 11.3-28.8 12-53.9 9-58.9s-11.1-8.6-23.4-15.1c-12.3-6.4-72.4-38.6-83.7-43.1-4.2-2-8.7-3.1-13.3-3.5-3 .2-5.9 1-8.5 2.6a17.3 17.3 0 0 0-6.3 6.3c-10 12.5-33.1 39.7-40.9 47.5-1.7 1.9-3.8 3.5-6.1 4.6s-4.9 1.7-7.5 1.7c-4.8-.2-9.4-1.5-13.6-3.7-36.4-15.5-69.7-37.6-98-65.3-26.4-26.1-48.9-55.9-66.5-88.5-6.8-12.7 0-19.2 6.2-25.1s12.9-14.1 19.3-21.2c5.3-6.1 9.7-12.8 13.1-20.1 1.8-3.4 2.6-7.1 2.6-10.9-.1-3.8-1.1-7.5-2.9-10.9-3-6.3-25.1-68.6-35.5-93.6-8.4-21.4-18.5-22.1-27.3-22.7-7.2-.5-15.5-.8-23.8-1h-1.1" class="st0"/></svg>