<?xml version="1.0" encoding="utf-8" ?><svg xmlns="http://www.w3.org/2000/svg" xmlns:xlink="http://www.w3.org/1999/xlink" width="1024" height="1024" viewBox="128 128 768 768"><path fill="#EFE8DE" d="M0 0L1024 0L1024 1024L0 1024L0 0Z"/><path fill="#036F73" d="M504.37 169.234C504.855 169.215 505.34 169.199 505.825 169.186C691.858 164.23 853.076 305.959 857.403 494.7C859.218 575.229 828.959 653.18 773.286 711.393C708.615 778.942 622.833 812.685 530.084 814.677C511.621 814.674 497.177 814.222 478.638 811.885C403.014 802.194 332.438 768.685 277.128 716.21C215.375 658.631 179.208 578.752 176.678 494.358C174.195 411.139 207.256 333.554 263.921 273.424C274.923 261.937 286.791 251.311 299.422 241.643C359.186 195.005 428.939 171.47 504.37 169.234Z"/><path fill="#72BDB6" d="M499.773 180.713C500.344 180.684 500.915 180.657 501.486 180.634C590.043 176.726 676.508 208.255 741.763 268.25C802.737 323.886 839.166 401.426 843.065 483.876C846.152 560.846 818.361 635.859 765.871 692.238C705.614 757.296 624.692 791.618 536.625 794.981C447.546 798.017 360.762 766.387 294.527 706.745C171.32 595.477 155.383 415.174 265.855 289.199C325.831 220.807 409.811 185.083 499.773 180.713Z"/><path fill="#036F73" d="M498.005 189.711C498.242 189.688 498.479 189.664 498.716 189.641C582.756 185.06 666.81 214.62 729.862 269.866C789.978 322.539 828.638 397.439 833.306 477.306C838.193 551.251 813.233 624.068 764.011 679.466C718.863 730.546 658.263 765.478 591.433 778.946C573.192 782.629 556.015 784.319 537.518 785.4C519.613 785.688 503.212 785.35 485.324 783.202C419.07 775.039 356.726 747.412 306.174 703.816C246.1 651.708 207.462 581.303 201.657 501.715C190.58 349.842 306.54 220.322 452.913 194.871C468.208 192.212 482.528 190.759 498.005 189.711Z"/><path fill="#EFE8DE" d="M464.057 200.668C498.131 195.694 531.631 195.056 565.735 200.762C598.045 206.324 631.055 216.283 660.081 231.74C698.305 250.816 726.587 274.902 755.063 306.082C740.332 314.15 662.3 334.769 658.03 339.68C654.645 338.058 651.612 335.776 648.537 333.612C648.464 335.842 648.462 339.251 648.182 341.364C643.132 342.179 638.031 344.575 633.217 345.967C621.885 349.243 607.107 355.876 596.091 358.863C592.899 349.065 591.315 342.192 590.961 331.821C596.659 334.676 611.935 339.556 614.918 331.266C612.655 330.357 610.294 331.215 607.711 330.149L607.503 329.4C612.342 325.539 613.808 326.066 618.439 320.976C603.268 324.154 601.201 321.183 588.494 313.186C587.72 332.273 586.53 348.952 578.93 366.963C577.272 363.262 570.265 363.938 571.66 369.291C569.244 368.301 567.573 368.306 565.098 367.68C558.452 366.001 555.328 364.53 549.918 360.433C549.603 367.039 549.579 372.925 548.396 379.438C546.746 386.016 545.417 390.952 542.612 397.272C541.363 400.087 536.849 405.218 536.895 406.95C537.852 407.358 537.986 407.383 539.009 407.593C543.203 412.673 537.099 433.128 543.213 443.295C542.995 458.902 542.923 474.512 542.997 490.121C543.016 495.917 542.723 508.846 543.297 514.047C535.049 516.692 508.582 525.388 502.295 529.857C498.953 537.844 492.646 558.865 490.991 567.534C483.645 569.793 461.82 578.494 455.927 582.351C451.459 590.301 442.908 609.681 439.225 618.493C432.107 621.713 422.859 625.531 417.197 630.858C428.205 634.818 437.123 634.12 448.662 634.274C462.005 634.449 475.35 634.55 488.694 634.577C505.987 634.576 523.276 635.17 540.529 636.356C551.795 637.004 563.017 638.262 574.146 640.123C579.292 640.992 588.527 643.21 593.198 643.654C602.53 643.916 611.864 644.128 621.199 644.29C612.605 642.22 594.231 637.123 586.221 636.092C598.484 631.4 611.419 624.673 624.231 621.669C680.866 608.388 744.437 602.886 802.378 600.693C800.926 603.234 799.63 605.931 798.316 608.552C760.627 689.013 678.952 744.824 593.588 763.449C530.448 777.231 457.145 771.04 398.178 744.014C387.403 739.283 378.968 735.146 368.541 729.62C360.846 725.197 353.403 720.381 345.914 715.618C340.14 712.043 330.559 704.768 325.113 700.488C297.097 678.825 273.03 652.49 253.971 622.642C249.555 615.783 243.756 606.461 240.518 598.927C228.849 574.466 220.701 556.036 216.298 528.733C211.007 508.399 210.654 478.023 211.973 457.242C212.339 452.873 212.877 448.339 213.331 443.963C217.366 419.591 220.034 408.07 228.382 384.926C231.184 376.758 242.942 351.454 247.907 344.469C255.413 331.534 260.575 324.113 269.805 312.282C279.201 300.21 288.071 290.879 299.118 280.204C309.794 270.099 321.26 260.862 333.407 252.582C349.631 240.276 373.437 228.735 392.018 220.705C416.2 210.409 438.309 204.933 464.057 200.668Z"/><path fill="#FCEBC3" d="M586.221 636.092C598.484 631.4 611.419 624.673 624.231 621.669C680.866 608.388 744.437 602.886 802.378 600.693C800.926 603.234 799.63 605.931 798.316 608.552C760.627 689.013 678.952 744.824 593.588 763.449C530.448 777.231 457.145 771.04 398.178 744.014C412.39 739.566 426.418 738.228 440.411 734.493C467.824 727.177 498.624 721.376 525.078 711.555C517.557 709.73 500.455 707.068 494.736 704.941L494.653 704.398C496.495 703.087 505.285 701.38 507.743 700.96C530.524 697.071 553.844 693.67 576.075 687.266C568.364 686.753 559.701 684.959 551.695 684.05C564.684 674.978 589.111 674.964 601.894 662.96C613.115 652.423 598.148 649.292 593.198 643.654C602.53 643.916 611.864 644.128 621.199 644.29C612.605 642.22 594.231 637.123 586.221 636.092Z"/><path fill="#F5CA76" d="M667.254 673.209C658.964 670.322 647.287 669.984 638.817 667.405C638.146 667.201 638.258 667.049 638.013 666.207C641.006 662.144 670.426 655.144 672.11 647.783C669.466 641.469 641.718 637.368 635.749 631.375C638.628 628.824 654.495 626.531 659.278 625.634C689.963 619.881 720.724 615.808 751.775 612.63C766.999 611.072 783.044 608.911 798.316 608.552C760.627 689.013 678.952 744.824 593.588 763.449C589.082 755.391 569.623 752.791 573.146 743.88C576.588 735.177 619.782 716.624 621.546 710.462C619.253 706.843 602.941 702.84 597.436 700.713C604.076 697.86 616.567 694.441 624.02 691.837C639.8 686.326 652.368 680.753 667.254 673.209Z"/><path fill="#1A8F8D" d="M255.341 601.938C257.828 600.709 278.057 599.391 282.073 599.006C291.179 598.147 300.258 597.012 309.296 595.605C317.937 594.25 332.811 591.437 341.256 592.011C337.353 593.537 327.966 592.778 326.587 594.421C328.028 597.902 325.506 599.951 327.639 602.375C329.419 602.627 328.941 602.346 330.134 602.155C335.253 601.334 345.647 601.459 350.747 602.029C376.373 601.786 404.7 606.188 429.218 605.868C420.346 617.417 387.413 632.575 372.997 637.603C383.245 640.403 393.847 641.106 404.396 641.972C434.623 644.453 465.1 643.628 495.233 647.217C497.491 647.486 500.01 647.871 502.262 648.005C508.007 651.477 525.139 654.194 525.49 659.607C526.168 670.082 487.152 678.454 481.794 679.558C484.373 680.373 487.784 681.137 489.209 683.477C489.13 685.009 489.461 684.437 488.467 685.373C464.472 689.09 441.095 691.718 417.846 699.163L428.32 699.891C430.998 701.063 432.474 701.76 435.038 703.236C433.841 704.916 433.851 704.817 432.022 705.866C414.246 709.875 399.414 712.28 381.126 712.216C375.904 712.197 369.49 714.204 364.152 714.523C358.186 715.138 351.711 715.034 345.914 715.618C340.14 712.043 330.559 704.768 325.113 700.488C297.097 678.825 273.03 652.49 253.971 622.642C249.555 615.783 243.756 606.461 240.518 598.927C244.692 599.066 251.649 600.061 255.341 601.938Z"/><path fill="#8ECDC3" d="M255.341 601.938C257.828 600.709 278.057 599.391 282.073 599.006C291.179 598.147 300.258 597.012 309.296 595.605C317.937 594.25 332.811 591.437 341.256 592.011C337.353 593.537 327.966 592.778 326.587 594.421C328.028 597.902 325.506 599.951 327.639 602.375C329.419 602.627 328.941 602.346 330.134 602.155C335.253 601.334 345.647 601.459 350.747 602.029C346.378 602.833 337.392 602.447 332.485 602.92C311.189 604.972 275.098 609.088 255.341 601.938Z"/><path fill="#8ECDC3" d="M461.017 654.629C467.575 653.835 492.013 653.867 494.31 660.875C493.982 662.845 493.319 663.982 491.806 665.235C480.43 674.664 429.082 681.102 413.651 682.211C404.991 682.834 395.741 683.096 387.121 682.086C378.66 681.384 368.85 679.012 360.655 676.937L361.227 676.905C387.743 675.367 415.343 673.689 441.607 669.78C445.914 669.139 471.274 664.184 470.257 659.136C468.03 657.433 463.931 656.105 461.017 654.629Z"/><path fill="#8ECDC3" d="M308.952 650.082C311.554 649.786 325.432 651.227 328.744 651.534C340.339 652.723 351.97 653.518 363.619 653.919C391.591 654.622 414.898 651.762 442.537 650.162L434.504 653.495C430.636 655.217 426.671 656.71 422.628 657.968C390.225 667.821 339.136 666.218 308.952 650.082Z"/><path fill="#8ECDC3" d="M353.859 615.717C365.469 614.251 384.226 616.877 395.939 617.896C376.438 623.573 355.021 625.174 334.831 626.394C320.215 626.638 307.274 627.118 292.895 623.75C309.203 619.092 336.397 616.836 353.859 615.717Z"/><path fill="#FCEBC3" d="M660.081 231.74C698.305 250.816 726.587 274.902 755.063 306.082C740.332 314.15 662.3 334.769 658.03 339.68C654.645 338.058 651.612 335.776 648.537 333.612C648.464 335.842 648.462 339.251 648.182 341.364C643.132 342.179 638.031 344.575 633.217 345.967C621.885 349.243 607.107 355.876 596.091 358.863C592.899 349.065 591.315 342.192 590.961 331.821C596.659 334.676 611.935 339.556 614.918 331.266C612.655 330.357 610.294 331.215 607.711 330.149L607.503 329.4C612.342 325.539 613.808 326.066 618.439 320.976C603.268 324.154 601.201 321.183 588.494 313.186C587.72 332.273 586.53 348.952 578.93 366.963C577.272 363.262 570.265 363.938 571.66 369.291C569.244 368.301 567.573 368.306 565.098 367.68C558.452 366.001 555.328 364.53 549.918 360.433C549.603 367.039 549.579 372.925 548.396 379.438C541.11 379.901 476.224 405.481 466.625 409.628C461.625 402.322 457.497 397.735 451.988 391.023C462.32 384.091 478.139 370.997 488.474 363.002L560.971 307.288L625.891 257.987C633.466 252.296 654.481 237.446 660.081 231.74Z"/><path fill="#036F73" d="M631.665 289.585C642.796 288.586 649.78 292.339 655.736 301.729C668.072 292.669 678.15 295.877 689.365 304.205C684.239 303.198 680.448 302.959 675.269 302.892C665.532 302.882 658.522 308.528 651.56 314.581C645.811 301.234 637.001 293.885 622.082 293.322C626.081 291.091 627.391 290.629 631.665 289.585Z"/><defs><linearGradient id="gradient_0" gradientUnits="userSpaceOnUse" x1="327.08838" y1="621.21606" x2="358.48889" y2="505.4548"><stop offset="0" stop-color="#5CBCB2"/><stop offset="1" stop-color="#A2D3C6"/></linearGradient></defs><path fill="url(#gradient_0)" d="M216.298 528.733C221.683 528.783 250.198 527.905 253.277 528.973C258.641 531.811 312.031 529.006 322.133 529.972C325.676 530.311 333.148 529.359 336.9 530.319C338.802 532.475 340.279 534.037 341.812 536.506C375.805 537.285 409.802 537.888 443.802 538.314C457.015 538.509 472.849 538.025 485.649 538.683C483.797 545.255 481.892 552.586 479.816 559.033L479.22 559.34C449.251 574.411 451.348 561.356 436.02 595.363C418.371 595.517 400.723 595.063 383.106 594.001C367.779 593.099 356.909 591.981 341.256 592.011C332.811 591.437 317.937 594.25 309.296 595.605C300.258 597.012 291.179 598.147 282.073 599.006C278.057 599.391 257.828 600.709 255.341 601.938C251.649 600.061 244.692 599.066 240.518 598.927C228.849 574.466 220.701 556.036 216.298 528.733Z"/><path fill="#CBDFCD" d="M325.959 573.774C341.703 573.241 375.675 572.035 389.797 575.991C381.243 579.495 368.202 579.015 358.804 579.117C337.541 579.011 314.377 578.711 293.149 576.344C304.377 573.955 314.587 574.034 325.959 573.774Z"/><path fill="#FCEBC3" d="M378.342 554.218C390.389 553.483 424.238 554.078 435.289 558L415.772 559.079C402.857 560.298 369.774 558.11 357.209 555.682C364.12 554.647 371.343 554.492 378.342 554.218Z"/><path fill="#FCEBC3" d="M327.649 547.222C338.24 546.715 351.131 548.433 362.171 548.856C350.004 552.757 341.995 552.454 329.624 551.669C320.346 551.032 302.305 550.768 294.162 549.392C306.57 548.16 315.228 547.579 327.649 547.222Z"/><path fill="#FCEBC3" d="M401.116 566.621C409.623 566.767 415.245 566.663 423.628 568.371C419.19 569.562 417.553 569.879 412.909 570.442C403.475 570.676 397.51 570.558 388.275 568.748C392.261 567.734 396.486 567.776 401.116 566.621Z"/><path fill="#CBDFCD" d="M291.03 535.493C299.628 535.499 320.274 535.198 328.109 538.028C317.748 538.124 307.386 537.886 297.04 537.317C293.086 537.1 288.823 536.48 285.131 536.308C286.362 535.563 289.429 535.591 291.03 535.493Z"/><path fill="#8ECDC3" d="M285.131 536.308C282.919 536.353 282.007 536.354 279.827 536.091L280.179 535.624C284.342 534.814 286.708 534.694 291.03 535.493C289.429 535.591 286.362 535.563 285.131 536.308Z"/><path fill="#FCEBC3" d="M464.057 200.668C498.131 195.694 531.631 195.056 565.735 200.762C563.963 205.254 544.253 229.819 539.685 235.934L470.342 328.775C459.939 342.691 444.018 362.618 434.718 376.736C426.35 370.898 420.138 368.146 410.452 365.214C422.426 326.188 435.415 288.298 448.119 249.578C451.362 239.666 454.663 229.773 458.023 219.9C459.898 214.331 462.805 206.249 464.057 200.668Z"/><path fill="#1A8F8D" d="M404.015 490.845C418.037 484.246 437.582 471.222 452.175 467.127C462.208 464.311 476.913 471.665 487.651 463.018C500.712 455.106 518.478 465.036 530.879 471.239C530.653 481.834 530.452 494.062 530.712 504.668C516.019 511.065 493.722 514.732 487.552 530.736L388.632 530.504L354.715 530.456C349.5 530.444 341.991 530.644 336.9 530.319C333.148 529.359 325.676 530.311 322.133 529.972C312.031 529.006 258.641 531.811 253.277 528.973C260.241 520.002 260.877 519.099 272.027 522.06C273.986 512.756 280.569 505.054 290.376 510.628C292.855 506.275 294.198 504.116 298.725 501.461C303.012 503.068 304.948 504.025 308.923 506.356C309.372 517.16 311.56 519.69 322.145 522.687C322.369 521.874 323.058 519.376 323.673 518.85C335.969 508.342 348.42 498.36 362.117 489.731C378.964 479.118 386.876 487.628 404.015 490.845Z"/><path fill="#F5CA76" d="M295.271 448.148C298.762 424.438 308.652 405.593 328.11 391.134C346.545 377.316 369.776 371.522 392.541 375.066C415.694 378.497 436.836 392.098 450.657 410.891C457.482 420.172 460.414 428.199 464.695 438.724C439.345 421.875 403.241 430.615 392.086 459.721C377.135 456.135 366.296 457.779 353.101 465.886C348.279 468.864 343.746 472.288 339.563 476.114C328.15 460.353 316.222 450.03 295.87 451.182C295.306 450.211 295.39 449.358 295.271 448.148Z"/><path fill="#FCEBC3" d="M333.407 252.582C349.631 240.276 373.437 228.735 392.018 220.705C391.589 247.008 389.157 273.316 388.061 299.597C387.224 319.676 384.704 340.305 384.544 360.351C376.789 360.296 370.111 360.592 362.438 362.139C357.937 342.506 351.599 321.432 346.865 301.511C344.134 290.017 337.567 262.277 333.407 252.582Z"/><path fill="#FCEBC3" d="M299.118 280.204C301.228 285.411 303.599 290.498 305.902 295.621C316.773 319.799 327.14 344.654 339.073 368.326C332.12 371.788 328.241 373.547 322.344 378.509L291.194 339.106C285.121 331.347 276.332 319.473 269.805 312.282C279.201 300.21 288.071 290.879 299.118 280.204Z"/><path fill="#FCEBC3" d="M247.907 344.469C251.186 346.577 254.004 349.386 256.933 351.951C272.838 365.879 288.296 380.314 304.056 394.402C299.851 399.837 295.548 405.428 292.909 411.833C279.225 405.447 265.335 399.511 251.262 394.035C247.235 392.443 230.762 386.373 228.382 384.926C231.184 376.758 242.942 351.454 247.907 344.469Z"/><path fill="#72BDB6" d="M438.028 700.326C445.088 700.884 473.243 701.253 474.067 709.073C468.616 719.207 403.019 725.39 389.13 727.721C384.945 728.423 371.202 728.364 368.541 729.62C360.846 725.197 353.403 720.381 345.914 715.618C351.711 715.034 358.186 715.138 364.152 714.523C369.49 714.204 375.904 712.197 381.126 712.216C399.414 712.28 414.246 709.875 432.022 705.866C433.851 704.817 433.841 704.916 435.038 703.236L435.368 702.55C436.68 701.805 436.521 702.105 438.37 702.344L438.028 700.326Z"/><path fill="#CBDFCD" d="M435.038 703.236L435.368 702.55C436.68 701.805 436.521 702.105 438.37 702.344C437.607 705.509 435.297 707.338 432.022 705.866C433.851 704.817 433.841 704.916 435.038 703.236Z"/><path fill="#FCEBC3" d="M213.331 443.963L214.022 443.801C218.774 442.662 222.605 440.855 227.123 439.465C236.759 436.501 246.39 436.557 255.603 440.869C258.679 442.309 261.544 444.149 264.265 445.437C274.718 442.993 285.384 440.858 294.742 447.762L295.271 448.148C295.39 449.358 295.306 450.211 295.87 451.182L295.08 451.301C292.808 451.628 290.435 451.359 288.1 451.767C277.655 453.59 270.43 456.379 262.978 463.818C251.241 446.62 227.75 454.657 211.973 457.242C212.339 452.873 212.877 448.339 213.331 443.963Z"/><path fill="#72BDB6" d="M502.262 648.005C513.794 647.59 541.846 649.699 551.585 658.004C552.604 658.873 553.324 660.238 553.485 661.576C553.722 663.551 552.06 666.065 550.633 667.205C539.806 675.859 501.875 684.357 488.467 685.373C489.461 684.437 489.13 685.009 489.209 683.477C487.784 681.137 484.373 680.373 481.794 679.558C487.152 678.454 526.168 670.082 525.49 659.607C525.139 654.194 508.007 651.477 502.262 648.005Z"/><path fill="#8ECDC3" d="M428.32 699.891C430.642 699.891 435.885 699.83 438.028 700.326L438.37 702.344C436.521 702.105 436.68 701.805 435.368 702.55L435.038 703.236C432.474 701.76 430.998 701.063 428.32 699.891Z"/><path fill="#EFE8DE" d="M755.063 306.082C786.517 344.526 798.488 369.383 813.935 415.549C821.062 442.862 823.704 459.587 823.72 487.731C821.378 487.219 815.326 485.553 813.323 486.401C811.847 485.316 811.682 485.664 809.503 485.48C807.086 485.222 804.769 484.729 802.383 484.271L802.244 490.631L796.524 489.275L796.368 482.688C791.096 482.411 783.677 480.728 778.418 479.562L778.458 486.739C776.54 486.24 774.256 485.896 772.278 485.545L771.946 476.74C768.137 476.385 761.368 474.627 757.453 473.679L757.504 482.283C755.749 481.904 753.809 481.582 752.029 481.247L751.52 472.609C747.987 472.007 744.522 471.403 740.967 470.936L740.326 471.711C740.535 473.069 740.726 473.623 740.491 474.973C738.978 475.349 735.341 474.208 733.253 473.837C733.294 465.564 733.095 457.256 733.15 448.918C729.364 448.023 725.591 447.073 721.833 446.067L721.691 457.399C719.828 457.023 717.959 456.673 716.086 456.351L716.236 444.192C712.388 443.486 708.62 442.27 704.813 441.72L704.212 442.391L703.483 440.96C701.616 439.708 700.684 439.827 698.354 439.58C695.043 438.78 691.725 438.004 688.402 437.252C688.067 437.142 687.432 437.095 687.052 437.048C686.004 438.721 686.474 444.449 686.545 446.693L680.725 445.91C680.852 442.691 680.774 439.13 680.769 435.88C664.83 428.273 668.267 447.37 668.258 457.359C664.834 456.412 662.081 456.059 658.571 455.545C658.949 448.353 659.086 441.905 658.645 434.699C659.314 433.353 661.615 428.767 661.795 427.657C663.322 418.281 662.567 405.432 662.571 395.789L667.506 393.938C656.332 381.183 653.089 367.711 651.835 351.343C656.422 354.115 668.128 357.695 671.396 351.801C670.814 350.386 668.368 351.368 665.784 349.87C666.023 348.704 672.449 343.993 674.854 341.158C667.215 342.719 664.883 342.732 658.03 339.68C662.3 334.769 740.332 314.15 755.063 306.082Z"/><path fill="#FCEBC3" d="M813.935 415.549C821.062 442.862 823.704 459.587 823.72 487.731C821.378 487.219 815.326 485.553 813.323 486.401C811.847 485.316 811.682 485.664 809.503 485.48C807.086 485.222 804.769 484.729 802.383 484.271L802.244 490.631L796.524 489.275L796.368 482.688C791.096 482.411 783.677 480.728 778.418 479.562L778.458 486.739C776.54 486.24 774.256 485.896 772.278 485.545L771.946 476.74C768.137 476.385 761.368 474.627 757.453 473.679L757.504 482.283C755.749 481.904 753.809 481.582 752.029 481.247L751.52 472.609C747.987 472.007 744.522 471.403 740.967 470.936L740.326 471.711C740.535 473.069 740.726 473.623 740.491 474.973C738.978 475.349 735.341 474.208 733.253 473.837C733.294 465.564 733.095 457.256 733.15 448.918C729.364 448.023 725.591 447.073 721.833 446.067L721.691 457.399C719.828 457.023 717.959 456.673 716.086 456.351L716.236 444.192C712.388 443.486 708.62 442.27 704.813 441.72L704.212 442.391L703.483 440.96C701.616 439.708 700.684 439.827 698.354 439.58C695.043 438.78 691.725 438.004 688.402 437.252C712.741 430.751 750.411 425.005 776.103 421.273L799.83 417.919C803.742 417.37 810.427 416.66 813.935 415.549Z"/><path fill="#036F73" d="M697.363 350.143C699.686 349.912 702.031 350.145 704.263 350.828C709.836 352.501 713.702 355.685 716.518 360.691C727.613 354.883 735.408 354.676 746.213 361.749C741.657 361.38 737.081 361.343 732.519 361.639C723.722 363.537 719.381 366.49 712.594 372.058C710.033 364.673 704.716 356.693 696.681 354.696C694.313 354.108 690.293 354.111 688.8 352.739C690.251 351.066 695.065 350.534 697.363 350.143Z"/><path fill="#EFE8DE" d="M622.316 516.715C632.746 516.211 642.643 516.479 653.085 516.766C644.488 519.088 637.752 520.353 628.965 523.571C611.357 530.019 597.96 535.738 579.212 538.332C566.787 551.61 558.22 558.92 542.726 568.404C545.553 554.614 542.786 555.905 553.22 543.709C548.327 544.742 543.455 545.871 538.606 547.095C527.616 550.115 513.916 569.737 505.311 578.713C508.524 568.253 512.699 541.906 519.179 534.106C527.094 524.577 607.079 517.729 622.316 516.715Z"/><path fill="#EFE8DE" d="M588.28 434.639L589.709 434.594C590.828 436.598 590.391 494.629 590.387 502.725C587.489 503.43 584.582 504.096 581.666 504.723C581.721 500.179 583.01 479.053 578.924 477.094C562.599 469.262 566.577 499.832 566.728 508.315L561.828 509.417C557.734 510.355 553.65 511.34 549.579 512.372C550.226 503.48 549.918 492.492 549.891 483.484L549.945 441.822C552.446 441.543 554.928 441.092 557.411 440.677C557.403 442.107 557.417 443.538 557.451 444.968C557.511 447.061 557.568 447.806 559.179 449.333L560.055 449.177C562.601 446.048 561.968 443.439 561.865 439.292C565.483 438.796 570.141 437.721 573.797 436.986L573.808 439.757C573.804 442.297 573.486 443.815 575.642 445.578L576.595 445.434C579.113 442.536 578.531 440.347 578.464 436.422C581.635 435.94 585.099 435.227 588.28 434.639Z"/><path fill="#EFE8DE" d="M596.091 358.863C607.107 355.876 621.885 349.243 633.217 345.967C638.031 344.575 643.132 342.179 648.182 341.364C647.595 354.604 646.021 364.873 640.798 377.315C639.539 380.313 632.79 389.68 633.068 390.956C634.932 391.475 635.621 391.274 636.489 392.491C636.81 397.723 636.607 402.875 636.483 408.112C634.003 407.88 633.83 407.449 631.957 408.367C631.011 409.893 631.365 414.391 631.306 416.528C629.637 416.212 627.866 415.839 626.191 415.647L626.457 405.647C622.607 405.223 619.374 404.721 615.554 404.054C615.581 407.284 616.047 411.646 615.068 414.428C613.715 415.781 614.523 415.364 612.487 415.567C608.309 413.58 610.19 407.258 610.053 402.952L603.37 401.916C603.339 398.056 603.032 385.7 603.77 382.482C605.066 381.716 605.4 381.719 606.843 381.357L607.108 380.629C601.692 371.976 599.421 368.617 596.091 358.863Z"/><path fill="#EFE8DE" d="M571.66 369.291C570.265 363.938 577.272 363.262 578.93 366.963C576.174 373.179 574.494 376.918 570.57 382.491L576.518 383.137C576.581 390.289 576.597 397.44 576.568 404.592L571.081 404.806L571.377 416.373C574.367 416.085 577.364 415.865 580.364 415.712L580.542 381.894L590.535 381.536L590.531 426.148C574.918 428.987 560.89 432.519 545.555 436.266C546.186 426.41 545.761 417.273 545.851 407.471L554.515 407.372C554.607 411.543 554.644 415.848 554.814 420.004L561.147 419.896C561.328 415.319 560.388 409.657 562.43 406.628C563.815 405.775 564.986 405.769 566.606 405.545C559.264 392.857 556.699 387.718 553.837 372.875C559.556 374.198 566.922 372.863 571.66 369.291Z"/><path fill="#EFE8DE" d="M626.56 498.846C625.583 498.863 620.455 498.499 619.869 498.005C625.027 497.255 638.867 497.485 644.154 497.924C689.914 497.862 770.63 509.532 808.863 536.665C763.294 518.935 712.171 512.649 663.965 505.054C654.66 503.588 634.871 499.369 626.56 498.846Z"/><path fill="#8ECDC3" d="M626.56 498.846C625.583 498.863 620.455 498.499 619.869 498.005C625.027 497.255 638.867 497.485 644.154 497.924C640.256 498.161 628.828 497.872 626.348 498.384L626.56 498.846Z"/><path fill="#EFE8DE" d="M667.98 528.677C667.321 530.824 642.383 554.4 639.271 555.965C626.444 562.417 605.106 565.265 590.964 569.02L591.259 568.07C596.864 562.916 616.685 544.371 622.389 541.287C631.015 536.623 657.627 531.354 667.98 528.677Z"/><path fill="#FCEBC3" d="M558.994 579.68C559.247 579.951 559.08 579.73 559.072 580.508C546.215 596.145 524.765 610.264 507.663 620.588C507.452 620.41 507.602 620.574 507.173 619.799C513.428 605.243 514.955 593.029 531.673 587.53C540.704 584.56 549.838 582.139 558.994 579.68Z"/><path fill="#FCEBC3" d="M588.769 581.415C589.202 581.827 589.01 581.545 589.146 582.366C585.672 589.923 581.724 604.387 579.065 612.859C572.232 616.373 564.826 618.352 557.717 621.714C556.84 619.895 560.551 607.405 561.295 604.547C567.054 598.33 582.037 586.495 588.769 581.415Z"/><path fill="#EFE8DE" d="M494.991 575.082L495.374 575.454C496.23 586.029 464.541 606.22 456.1 612L455.766 611.638C456.225 609.055 460.822 599.461 462.132 596.763C468.849 582.933 481.207 579.449 494.991 575.082Z"/><path fill="#EFE8DE" d="M641.737 392.229C643.386 392.494 646.8 392.452 648.597 392.483L648.527 409.035C646.26 408.694 643.808 408.593 641.507 408.44C641.514 404.254 641.243 395.979 641.737 392.229Z"/><path fill="#FCEBC3" d="M698.354 439.58C700.684 439.827 701.616 439.708 703.483 440.96L704.212 442.391C704.534 445.378 704.385 448.696 704.347 451.727C702.435 451.526 700.364 451.163 698.449 450.871L698.354 439.58Z"/><path fill="#FCEBC3" d="M809.503 485.48C811.682 485.664 811.847 485.316 813.323 486.401C813.545 489.114 814.239 491.053 812.238 493.083C808.693 492.66 809.426 488.121 809.503 485.48Z"/></svg>